<?xml version="1.0" standalone="no"?>
<!DOCTYPE svg PUBLIC "-//W3C//DTD SVG 20010904//EN"
 "http://www.w3.org/TR/2001/REC-SVG-20010904/DTD/svg10.dtd">
<svg version="1.0" xmlns="http://www.w3.org/2000/svg"
 width="441.000000pt" height="428.000000pt" viewBox="0 0 441.000000 428.000000"
 preserveAspectRatio="xMidYMid meet">

<g transform="translate(0.000000,428.000000) scale(0.100000,-0.100000)"
fill="#000000" stroke="none">
<path d="M1402 4195 c-84 -39 -92 -64 -92 -310 0 -158 3 -206 15 -229 8 -15
15 -30 15 -32 0 -2 -58 -4 -128 -4 -162 0 -164 -1 -164 -122 -1 -107 10 -128
62 -128 l40 0 0 -577 c-1 -429 -3 -573 -12 -558 -6 11 -18 28 -27 38 -11 13
-15 41 -16 100 -1 66 -6 93 -27 138 -64 140 -200 212 -353 187 -108 -17 -188
-80 -239 -188 -26 -55 -31 -77 -31 -146 -1 -64 -5 -86 -22 -110 -114 -161
-101 -359 33 -512 50 -57 157 -117 234 -130 l45 -8 3 -187 2 -187 -138 0 c-94
0 -142 -4 -150 -12 -15 -15 -15 -51 0 -66 9 -9 394 -12 1669 -12 1494 0 1659
2 1673 16 9 8 16 23 16 33 0 37 -18 41 -212 41 l-188 0 0 1070 0 1070 30 0
c40 0 50 27 50 135 0 116 1 115 -202 115 l-159 0 18 33 c16 28 18 59 18 232 0
183 -2 203 -21 239 -27 52 -58 74 -123 86 -33 6 -343 10 -810 10 l-756 0 -53
-25z m1654 -79 c18 -13 19 -28 19 -211 0 -195 0 -197 -24 -216 -22 -18 -50
-19 -806 -19 -467 0 -794 4 -808 9 -14 6 -29 20 -33 33 -4 13 -7 104 -6 203 2
170 3 181 23 198 20 16 74 17 818 17 673 0 800 -2 817 -14z m264 -1816 l0
-1070 -385 0 -385 0 0 315 c0 305 1 315 19 315 40 0 59 60 27 82 -20 14 -631
9 -644 -4 -22 -22 -14 -58 18 -76 l30 -17 0 -307 0 -308 -385 0 -385 0 0 1070
0 1070 1045 0 1045 0 0 -1070z m-2455 299 c100 -47 151 -143 141 -265 -5 -64
-3 -73 15 -90 35 -31 67 -96 77 -154 30 -166 -76 -334 -240 -381 l-28 -8 0
231 c0 201 -2 234 -17 250 -20 22 -46 23 -64 2 -10 -12 -13 -50 -11 -147 l2
-131 -39 38 c-30 29 -45 37 -67 34 -23 -2 -30 -8 -32 -31 -3 -24 8 -41 67
-102 64 -65 71 -77 71 -113 l0 -39 -37 7 c-107 20 -180 77 -230 176 -31 63
-35 82 -35 147 0 83 20 142 72 207 29 37 31 43 24 98 -13 117 39 217 138 266
65 32 131 34 193 5z m1502 -749 l93 0 0 -310 0 -310 -185 0 -185 0 0 316 0
317 92 -7 c50 -3 133 -6 185 -6z m-1217 -315 l0 -305 -159 0 c-156 0 -159 0
-165 23 -3 12 -6 97 -6 188 l0 165 49 13 c95 24 211 108 254 184 11 20 22 37
24 37 2 0 3 -137 3 -305z"/>
<path d="M1500 3936 c0 -62 3 -128 6 -145 6 -27 10 -31 40 -31 l34 0 0 55 0
55 45 0 45 0 0 -55 0 -55 40 0 40 0 0 145 0 145 -40 0 -40 0 0 -55 0 -55 -45
0 -45 0 0 55 0 55 -40 0 -40 0 0 -114z"/>
<path d="M1870 4029 c-42 -26 -57 -44 -69 -87 -15 -52 -2 -100 38 -142 64 -66
167 -60 222 13 34 45 34 128 0 176 -43 61 -128 78 -191 40z m124 -71 c42 -60
0 -147 -63 -133 -36 8 -51 30 -51 77 0 49 24 78 65 78 24 0 39 -7 49 -22z"/>
<path d="M2174 4040 c-28 -11 -54 -48 -54 -78 0 -40 19 -62 76 -87 34 -15 54
-30 54 -41 0 -17 -22 -16 -91 1 -20 5 -27 2 -36 -18 -10 -22 -9 -27 12 -41 35
-23 100 -31 134 -16 17 6 36 26 45 45 23 48 6 88 -47 114 -68 33 -73 37 -58
55 10 11 18 12 42 4 33 -11 59 2 59 32 0 33 -84 51 -136 30z"/>
<path d="M2342 4013 c3 -35 6 -38 36 -41 l32 -3 0 -105 0 -104 40 0 40 0 0
105 0 105 35 0 c34 0 35 1 35 40 l0 40 -111 0 -110 0 3 -37z"/>
<path d="M2580 3943 c0 -60 3 -125 6 -145 l7 -38 88 0 89 0 0 30 c0 30 -1 30
-55 30 -54 0 -55 0 -55 30 0 29 1 30 50 30 49 0 50 1 50 30 0 29 -1 30 -50 30
-43 0 -50 3 -50 20 0 18 7 20 55 20 l55 0 0 35 0 35 -95 0 -95 0 0 -107z"/>
<path d="M2810 3905 l0 -145 85 0 85 0 0 30 c0 29 -2 30 -45 30 l-46 0 7 59
c3 33 3 85 0 115 l-7 56 -40 0 -39 0 0 -145z"/>
<path d="M1395 3226 c-19 -14 -20 -26 -20 -230 0 -163 3 -218 13 -228 19 -19
425 -19 444 0 19 19 19 435 0 454 -20 20 -410 24 -437 4z m355 -236 l0 -150
-140 0 -140 0 0 150 0 150 140 0 140 0 0 -150z"/>
<path d="M2073 3225 c-23 -16 -23 -20 -23 -229 0 -186 2 -215 17 -227 12 -11
64 -15 211 -17 172 -3 196 -1 213 14 18 16 19 34 19 229 0 185 -2 214 -17 226
-12 11 -63 15 -207 17 -162 2 -194 0 -213 -13z m347 -235 l0 -150 -140 0 -140
0 0 150 0 150 140 0 140 0 0 -150z"/>
<path d="M2727 3222 c-15 -16 -17 -44 -17 -223 0 -161 3 -209 14 -225 13 -17
30 -19 211 -22 167 -3 200 -1 221 12 l24 16 0 208 c0 164 -3 212 -14 228 -13
18 -30 19 -218 22 -190 3 -205 2 -221 -16z m353 -232 l0 -150 -140 0 -140 0 0
150 0 150 140 0 140 0 0 -150z"/>
<path d="M1389 2573 c-11 -12 -14 -64 -14 -232 l0 -215 25 -13 c35 -18 399
-18 423 0 14 10 16 42 19 230 3 207 2 219 -16 233 -16 11 -63 14 -222 14 -175
0 -203 -2 -215 -17z m361 -228 l0 -145 -146 0 -147 0 7 38 c3 20 6 85 6 145
l0 107 140 0 140 0 0 -145z"/>
<path d="M2059 2574 c-18 -21 -18 -439 0 -457 16 -16 401 -23 430 -7 20 10 21
18 21 235 0 212 -1 225 -19 235 -12 6 -101 10 -219 10 -170 0 -201 -2 -213
-16z m361 -229 l0 -145 -140 0 -140 0 0 145 0 145 140 0 140 0 0 -145z"/>
<path d="M2727 2572 c-15 -16 -17 -47 -17 -230 0 -207 0 -211 22 -226 19 -13
57 -16 219 -16 177 0 197 2 212 18 15 16 17 47 17 229 0 191 -2 211 -18 226
-16 15 -47 17 -219 17 -181 0 -201 -2 -216 -18z m353 -227 l0 -145 -140 0
-140 0 0 145 0 145 140 0 140 0 0 -145z"/>
<path d="M1395 1887 c-19 -15 -20 -27 -20 -231 0 -163 3 -218 13 -228 19 -19
412 -19 435 1 15 12 17 40 17 220 0 163 -3 211 -14 227 -13 17 -30 19 -213 22
-164 3 -201 1 -218 -11z m355 -238 l0 -152 -37 7 c-21 3 -84 6 -140 6 l-103 0
0 145 0 145 140 0 140 0 0 -151z"/>
<path d="M2755 1893 c-44 -11 -45 -16 -45 -232 0 -150 3 -212 13 -224 10 -14
40 -17 218 -19 163 -2 209 0 222 11 15 12 17 40 17 226 0 185 -2 214 -17 226
-12 11 -61 14 -202 16 -102 1 -195 -1 -206 -4z m325 -244 l0 -152 -92 7 c-50
3 -113 6 -140 6 l-48 0 0 145 0 145 140 0 140 0 0 -151z"/>
<path d="M1834 901 c-70 -17 -124 -86 -124 -158 0 -46 37 -108 79 -131 103
-58 226 4 238 120 11 103 -93 193 -193 169z m95 -87 c41 -52 18 -147 -38 -159
-60 -13 -107 39 -98 108 7 50 35 77 82 77 24 0 39 -7 54 -26z"/>
<path d="M2134 896 c-56 -25 -82 -89 -51 -129 6 -9 40 -30 75 -47 46 -22 62
-35 60 -48 -4 -23 -58 -28 -95 -8 -27 13 -30 13 -41 -5 -19 -30 -14 -46 19
-58 57 -20 124 -14 157 14 63 53 43 117 -51 161 -72 34 -81 57 -25 62 20 2 46
-2 57 -8 16 -8 22 -7 31 9 15 29 13 37 -14 49 -43 19 -90 22 -122 8z"/>
<path d="M1400 745 l0 -155 35 0 35 0 0 65 0 65 60 0 60 0 0 -65 0 -65 35 0
35 0 0 155 0 155 -35 0 -35 0 0 -55 0 -55 -60 0 -60 0 0 55 0 55 -35 0 -35 0
0 -155z"/>
<path d="M2330 870 c0 -28 2 -30 40 -30 l40 0 0 -125 0 -125 40 0 40 0 0 125
0 125 40 0 c38 0 40 2 40 30 l0 30 -120 0 -120 0 0 -30z"/>
<path d="M2610 745 l0 -155 100 0 100 0 0 30 0 30 -65 0 -65 0 0 35 0 35 50 0
c28 0 50 4 50 9 0 5 3 16 6 25 5 13 -3 16 -50 16 l-56 0 0 35 0 35 65 0 65 0
0 30 0 30 -100 0 -100 0 0 -155z"/>
<path d="M2870 745 l0 -155 95 0 95 0 0 29 c0 25 -5 31 -30 36 -16 4 -43 4
-60 0 l-30 -7 0 126 0 126 -35 0 -35 0 0 -155z"/>
<path d="M1100 411 c-6 -12 -24 -65 -41 -119 -16 -53 -32 -105 -35 -114 -4
-15 1 -18 25 -18 24 0 32 5 37 25 5 22 12 25 50 25 38 0 44 -3 50 -25 5 -20
12 -25 39 -25 l34 0 -41 123 c-22 67 -43 125 -47 129 -3 4 -18 10 -33 13 -21
5 -29 2 -38 -14z m53 -117 c2 -24 -2 -30 -22 -32 -19 -3 -22 0 -17 13 3 9 9
28 12 42 8 31 24 17 27 -23z"/>
<path d="M1323 409 c-31 -20 -63 -80 -63 -119 0 -38 31 -96 60 -114 37 -21 96
-24 138 -7 31 13 32 15 32 77 l0 64 -55 0 c-52 0 -55 -1 -55 -25 0 -21 5 -25
30 -25 42 0 42 -36 1 -45 -40 -9 -67 8 -81 50 -14 43 2 84 42 103 23 11 32 10
59 -3 28 -15 33 -15 47 -2 51 51 -84 92 -155 46z"/>
<path d="M1540 296 l0 -136 85 0 c84 0 85 0 85 24 0 23 -4 25 -52 28 -49 3
-53 5 -56 31 -3 26 -2 27 42 27 42 0 46 2 46 25 0 23 -4 25 -45 25 -41 0 -45
2 -45 25 0 24 3 25 55 25 52 0 55 1 55 25 0 24 -3 25 -54 25 -29 0 -68 3 -85
6 l-31 7 0 -137z"/>
<path d="M1778 423 c-16 -4 -18 -19 -18 -134 l0 -129 31 0 32 0 -6 83 -5 82
31 -83 c40 -104 58 -107 92 -14 13 35 26 66 29 69 3 4 6 -26 6 -65 l0 -72 30
0 30 0 0 130 0 130 -39 0 -39 0 -29 -76 -29 -76 -30 79 c-30 80 -40 89 -86 76z"/>
<path d="M2113 423 c-22 -4 -23 -8 -23 -134 l0 -129 85 0 c84 0 85 0 85 25 0
24 -3 25 -61 25 -60 0 -60 0 -57 28 3 24 7 27 46 30 37 3 42 6 42 28 0 22 -4
24 -45 24 -41 0 -45 2 -45 25 0 24 3 25 55 25 51 0 55 2 55 24 0 18 -7 25 -31
30 -33 6 -69 6 -106 -1z"/>
<path d="M2308 423 c-16 -4 -18 -19 -18 -134 l0 -129 30 0 29 0 3 80 3 80 46
-78 c40 -67 50 -77 78 -80 l31 -3 0 130 0 131 -30 0 -29 0 -3 -72 -3 -72 -29
55 c-30 54 -68 100 -83 98 -4 -1 -16 -3 -25 -6z"/>
<path d="M2603 423 c-49 -4 -53 -6 -53 -29 0 -21 5 -24 35 -24 l35 0 0 -105 0
-105 30 0 30 0 0 105 0 105 40 0 c38 0 40 2 40 30 0 30 0 30 -52 28 -29 -1
-77 -3 -105 -5z"/>
<path d="M2900 417 c-30 -15 -45 -54 -36 -91 5 -21 20 -33 60 -51 63 -28 72
-38 50 -56 -12 -10 -24 -10 -57 -1 -36 9 -44 9 -54 -5 -17 -22 -16 -30 5 -38
99 -41 182 -14 182 59 0 38 -16 55 -82 86 -27 12 -48 26 -48 31 0 18 38 28 71
19 34 -10 48 -2 49 28 0 29 -94 42 -140 19z"/>
<path d="M3353 419 c-12 -6 -27 -25 -34 -41 -18 -44 1 -73 66 -105 36 -18 55
-33 53 -43 -4 -16 -47 -20 -85 -7 -17 6 -24 3 -33 -14 -15 -28 -3 -39 50 -49
64 -12 109 5 126 45 21 51 6 80 -59 109 -64 28 -75 41 -48 56 15 8 29 7 56 -4
34 -15 35 -14 41 10 4 14 2 30 -4 36 -15 15 -103 20 -129 7z"/>
<path d="M190 291 l0 -131 31 0 32 0 -6 80 c-3 44 -4 80 -2 80 2 0 15 -36 30
-81 24 -70 30 -80 49 -77 16 2 27 19 46 73 l25 70 3 -72 3 -73 30 0 30 0 -3
128 -3 127 -36 3 -37 3 -27 -76 c-15 -41 -30 -74 -32 -72 -2 2 -14 35 -27 73
l-23 69 -41 3 -42 3 0 -130z"/>
<path d="M534 290 l-41 -130 32 0 c27 0 34 5 39 25 6 22 12 25 50 25 39 0 45
-3 48 -22 2 -18 11 -24 36 -26 17 -2 32 -1 32 3 0 3 -18 62 -41 130 l-40 125
-37 0 -37 0 -41 -130z m100 -2 c6 -25 4 -28 -20 -28 -24 0 -25 2 -19 33 13 58
24 57 39 -5z"/>
<path d="M770 290 l0 -130 25 0 c24 0 24 2 27 88 l3 87 50 -87 c44 -76 54 -87
78 -88 l27 0 0 130 0 130 -25 0 c-25 0 -25 -2 -25 -77 l0 -78 -46 78 c-43 72
-48 77 -80 77 l-34 0 0 -130z"/>
<path d="M3070 415 c0 -3 16 -37 35 -75 20 -40 37 -92 41 -124 6 -49 9 -56 29
-56 20 0 23 7 28 55 4 39 18 79 47 130 l41 75 -35 0 c-31 0 -35 -4 -57 -53
l-24 -54 -24 54 c-21 46 -28 53 -52 53 -16 0 -29 -2 -29 -5z"/>
<path d="M3520 395 c0 -22 4 -25 35 -25 l35 0 0 -105 0 -105 30 0 30 0 0 105
0 105 35 0 c31 0 35 3 35 25 l0 25 -100 0 -100 0 0 -25z"/>
<path d="M3760 290 l0 -130 80 0 c44 0 80 4 80 9 0 5 3 16 6 25 5 13 -3 16
-50 16 -56 0 -56 0 -56 30 0 28 2 30 40 30 36 0 40 3 40 25 0 23 -4 25 -40 25
-36 0 -40 3 -40 25 0 23 3 25 50 25 47 0 50 2 50 25 0 25 -1 25 -80 25 l-80 0
0 -130z"/>
<path d="M3970 291 l0 -131 25 0 c23 0 24 3 27 77 l3 77 26 -74 c20 -57 31
-76 46 -78 18 -3 26 10 51 80 l31 83 0 -82 c1 -82 1 -83 26 -83 l25 0 0 130 0
130 -38 0 -37 0 -29 -77 -29 -77 -27 75 c-26 72 -27 74 -63 77 l-37 3 0 -130z"/>
</g>
</svg>
