<?xml version='1.0' encoding='utf-8'?>
<svg xmlns="http://www.w3.org/2000/svg" version="1.1" style="display: block;" viewBox="0 0 128 128" width="128" height="128">
<g transform="scale(0.0625)"><path transform="translate(0,0)" fill="rgb(28,51,93)" d="M 724.144 205.319 C 751.983 204.16 780.186 205.099 808.057 205.135 L 959.853 205.163 L 1198.72 205.141 C 1241.45 205.12 1284.26 204.572 1326.99 205.144 C 1350.71 205.462 1371.59 208.36 1388.79 226.296 C 1397.13 234.988 1402.62 245.857 1405.25 257.575 C 1409.69 277.287 1407.02 310.901 1406.98 332.231 C 1406.94 354.552 1407.7 376.955 1407.19 399.258 C 1406.81 416.415 1403.36 431.722 1390.48 444.009 C 1420.08 445.089 1449.97 444.21 1479.6 444.201 C 1492.41 444.198 1507.45 442.712 1519.96 445.248 C 1527.38 446.753 1530.76 451.067 1534.89 456.967 C 1535.96 472.239 1537.3 516.681 1534.35 530.321 C 1532.77 537.656 1530.03 540.755 1523.76 544.709 C 1517.13 545.352 1510.76 545.65 1504.1 545.467 L 1504.59 1183.61 C 1504.64 1255.27 1505.53 1327 1504.75 1398.65 C 1525.62 1398.77 1645.7 1396.22 1655.37 1401.04 C 1661.37 1404.03 1663.46 1410.43 1665.24 1416.42 C 1664.16 1421.55 1663.04 1427.17 1659.34 1431.12 C 1655.95 1434.75 1650.95 1435.72 1646.2 1435.97 C 1619.55 1437.33 1592.17 1435.94 1565.42 1435.94 L 1398.76 1435.95 L 891.5 1435.94 L 510.183 1435.92 L 388.679 1435.89 C 370.02 1435.89 350.445 1437.28 331.923 1435.95 C 327.592 1435.64 323.303 1434.5 320.012 1431.53 C 316.085 1427.98 313.988 1422.8 313.978 1417.54 C 313.969 1412.26 315.927 1407.03 319.81 1403.38 C 322.301 1401.04 325.27 1399.83 328.605 1399.28 C 340.248 1397.36 353.489 1398.54 365.287 1398.56 L 434.608 1398.8 C 433.257 1349.46 434.567 1299.95 434.175 1250.58 C 400.192 1247.81 367.782 1235.07 341.008 1213.96 C 305.861 1186.49 283.156 1146.1 277.945 1101.8 C 272.093 1052.38 289.103 1012.94 319.099 974.824 C 314.974 957.134 315.007 937.023 318.281 919.208 C 324.747 883.16 345.521 851.261 375.874 830.769 C 405.257 810.86 440.523 804.355 475.222 811.378 C 509.616 818.34 540.055 840.454 559.223 869.648 C 579.267 900.178 584.552 937.202 577.244 972.66 C 586.788 981.917 593.175 993.417 599.88 1004.76 L 600.027 545.935 C 590.328 545.797 580.634 545.403 570.956 544.754 C 567.765 542.675 564.908 540.469 562.607 537.387 C 560.734 534.878 559.58 531.911 559.043 528.839 C 556.837 516.212 556.934 474.448 559.008 461.737 C 560.384 453.295 564.17 450.159 570.836 445.321 C 606.084 441.164 642.538 445.905 678.029 443.95 C 672.741 435.993 667.188 427.81 665.24 418.286 C 662.729 406.006 662.596 271.908 664.775 257.64 C 666.105 248.939 670.138 238.696 675.258 231.446 C 686.347 215.746 705.804 208.013 724.144 205.319 z M 469.968 1249.36 C 469.977 1267.29 468.46 1392.12 470.643 1398.42 L 471.979 1398.76 C 514.569 1398.68 557.47 1397.58 600.016 1399.08 C 599.718 1372.61 601.256 1158.75 598.431 1155.81 C 580.419 1195.38 544.467 1225.46 503.983 1240.41 C 492.897 1244.51 481.54 1247.07 469.968 1249.36 z" />
<path transform="translate(0,0)" fill="rgb(247,158,70)" d="M 632.902 544.769 L 1469.69 544.671 C 1468.46 616.332 1469.54 688.177 1469.54 759.861 L 1469.55 1178.78 C 1469.56 1252.37 1470.29 1326.05 1469.49 1399.64 C 1414.59 1399.64 1359.62 1400.25 1304.72 1399.6 L 1159.12 1399.83 C 1159.65 1316.58 1159.64 1233.33 1159.1 1150.08 C 1164.7 1150.1 1170.68 1150.18 1175.88 1147.77 C 1181.71 1145.08 1184.17 1140.46 1186.13 1134.64 C 1185.98 1128.32 1185.55 1121.92 1180.74 1117.26 C 1178.19 1114.78 1175.12 1113.21 1171.61 1112.71 C 1160.64 1111.15 1148.58 1111.98 1137.47 1111.98 L 1078.01 1111.96 L 986.426 1111.96 C 969.353 1111.97 951.938 1111.28 934.909 1112.28 C 929.246 1112.61 924.837 1113.41 920.833 1117.83 C 917.285 1121.76 915.728 1127.27 916.068 1132.49 C 916.358 1136.94 918.128 1142.24 921.601 1145.23 C 926.539 1149.49 933.523 1150.11 939.737 1150.3 C 938.543 1183.34 939.315 1216.63 939.344 1249.7 L 939.681 1399.7 C 837.439 1399.64 735.034 1398.45 632.809 1399.85 L 632.902 544.769 z" />
<path transform="translate(0,0)" fill="rgb(242,166,66)" d="M 1159.1 1150.08 C 1164.7 1150.1 1170.68 1150.18 1175.88 1147.77 C 1181.71 1145.08 1184.17 1140.46 1186.13 1134.64 C 1187.29 1137.27 1187.11 1139.29 1186.12 1141.93 C 1184.69 1145.72 1180.62 1148.8 1177.69 1151.44 L 1163.52 1151.49 C 1161.82 1175.56 1163 1200.17 1163.18 1224.3 L 1163.03 1311.61 C 1163.13 1338.32 1163.93 1365.42 1162.58 1392.1 C 1162.1 1387.31 1161.8 1382.68 1161.8 1377.86 C 1161.44 1384.13 1160.5 1391.55 1162.86 1397.52 C 1163.36 1397.49 1163.85 1397.45 1164.35 1397.42 C 1166.19 1397.32 1167.86 1397.54 1169.67 1397.77 C 1188.44 1400.09 1298.43 1395.33 1304.72 1399.6 L 1159.12 1399.83 C 1159.65 1316.58 1159.64 1233.33 1159.1 1150.08 z" />
<path transform="translate(0,0)" fill="rgb(28,51,93)" d="M 1225.31 1146.85 C 1229.25 1141.38 1232.93 1135.8 1240.11 1134.68 C 1257.53 1131.98 1282.85 1133.9 1300.87 1133.89 C 1329.69 1133.88 1359.31 1132.4 1387.99 1134.14 C 1392.56 1134.42 1400.79 1134.73 1404.27 1137.65 C 1408.75 1141.41 1410.82 1147.06 1411 1152.78 C 1411.16 1157.36 1411.02 1161.94 1411.19 1166.53 C 1411.58 1162.61 1411.12 1157.12 1413.47 1153.9 C 1413.99 1156.67 1413.46 1159.26 1413.64 1162.06 C 1414.7 1179.15 1414.59 1196.17 1414.59 1213.29 C 1414.6 1241.68 1415.84 1270.74 1414.13 1299.05 L 1413.78 1297.42 L 1412.74 1303.27 L 1411.34 1303.83 C 1410.71 1310.07 1409.56 1316.31 1404.47 1320.54 C 1394.46 1328.87 1338.38 1324.9 1322.7 1325.3 C 1321.48 1326.46 1322.21 1326.08 1320.26 1326.34 C 1310.69 1327.59 1300 1326.4 1290.29 1326.52 C 1275.83 1326.7 1238.65 1331.56 1228.01 1321.51 C 1214.72 1308.95 1222.43 1254 1222.39 1234.85 C 1222.26 1237.52 1221.96 1240.16 1221.66 1242.82 L 1220.97 1241.97 C 1220.45 1233.16 1222.21 1224.96 1222.32 1216.22 C 1222.62 1193.5 1220.74 1169.56 1223.73 1147.06 L 1225.31 1146.85 z" />
<path transform="translate(0,0)" fill="rgb(242,166,66)" d="M 1322.7 1325.3 C 1321.48 1326.46 1322.21 1326.08 1320.26 1326.34 C 1310.69 1327.59 1300 1326.4 1290.29 1326.52 C 1275.83 1326.7 1238.65 1331.56 1228.01 1321.51 C 1214.72 1308.95 1222.43 1254 1222.39 1234.85 C 1222.26 1237.52 1221.96 1240.16 1221.66 1242.82 L 1220.97 1241.97 C 1220.45 1233.16 1222.21 1224.96 1222.32 1216.22 C 1222.62 1193.5 1220.74 1169.56 1223.73 1147.06 L 1225.31 1146.85 C 1224.32 1181.15 1224.86 1215.61 1224.83 1249.93 C 1224.82 1268.55 1223.17 1288.71 1225.39 1307.08 C 1225.9 1311.32 1226.96 1315.08 1229.87 1318.33 C 1235.22 1324.31 1243.38 1325.12 1250.93 1325.31 C 1274.83 1325.9 1298.79 1324.82 1322.7 1325.3 z" />
<path transform="translate(0,0)" fill="rgb(242,166,66)" d="M 1411.19 1166.53 C 1411.58 1162.61 1411.12 1157.12 1413.47 1153.9 C 1413.99 1156.67 1413.46 1159.26 1413.64 1162.06 C 1414.7 1179.15 1414.59 1196.17 1414.59 1213.29 C 1414.6 1241.68 1415.84 1270.74 1414.13 1299.05 L 1413.78 1297.42 L 1412.74 1303.27 L 1411.34 1303.83 C 1409.39 1289.02 1410.99 1272.04 1410.98 1257.06 C 1410.85 1226.88 1410.92 1196.7 1411.19 1166.53 z" />
<path transform="translate(0,0)" fill="rgb(126,215,233)" d="M 1260.4 1171.14 C 1298.15 1172.36 1336.15 1171.49 1373.92 1171.4 L 1374.02 1290.54 C 1336.25 1289.15 1298.15 1290.18 1260.34 1290.22 C 1260.79 1250.52 1260.82 1210.83 1260.4 1171.14 z" />
<path transform="translate(0,0)" fill="rgb(28,51,93)" d="M 1238.28 598.235 C 1256.78 597.339 1391.94 596.226 1399.86 599.426 C 1406.3 602.024 1408.94 607.272 1411.22 613.459 C 1412.46 615.363 1412.48 616.475 1412.74 618.618 C 1413.22 622.589 1413.56 626.48 1413.72 630.48 C 1413.84 628.527 1413.53 625.003 1414.67 623.49 L 1414.47 622.138 C 1414.22 623.638 1413.84 623.835 1414.73 625.151 C 1415.24 648.982 1414.38 672.79 1414.55 696.619 C 1414.71 720.253 1416.94 746.225 1413.3 769.501 C 1413.17 770.378 1413.08 771.261 1412.96 772.142 C 1412.23 766.767 1412.51 760.583 1411.2 755.444 L 1410.83 776.52 C 1408.73 780.214 1406.21 783.986 1402.86 786.665 C 1399.84 789.075 1396.25 789.351 1392.54 789.678 C 1367.27 791.909 1333.05 790.136 1306.68 790.126 C 1288.5 790.12 1256.78 791.988 1240.79 789.293 C 1236.79 788.619 1230.06 786.278 1228.12 782.337 C 1226.05 778.133 1225.44 770.898 1225.18 766.193 C 1223.47 736.199 1224.97 705.218 1224.96 675.14 C 1224.96 659.4 1222.97 625.072 1225.99 611.033 C 1227.39 604.501 1232.94 601.39 1238.28 598.235 z" />
<path transform="translate(0,0)" fill="rgb(242,166,66)" d="M 1411.22 613.459 C 1412.46 615.363 1412.48 616.475 1412.74 618.618 C 1413.22 622.589 1413.56 626.48 1413.72 630.48 C 1413.84 628.527 1413.53 625.003 1414.67 623.49 L 1414.47 622.138 C 1414.22 623.638 1413.84 623.835 1414.73 625.151 C 1415.24 648.982 1414.38 672.79 1414.55 696.619 C 1414.71 720.253 1416.94 746.225 1413.3 769.501 C 1413.17 770.378 1413.08 771.261 1412.96 772.142 C 1412.23 766.767 1412.51 760.583 1411.2 755.444 C 1409.79 733.392 1411.02 710.365 1411 688.204 C 1410.98 663.485 1409.8 638.093 1411.22 613.459 z" />
<path transform="translate(0,0)" fill="rgb(126,215,233)" d="M 1260.65 635.24 C 1298.44 635.462 1336.23 635.479 1374.02 635.291 L 1374.08 755.212 L 1260.56 755.221 C 1260.93 715.229 1260.96 675.233 1260.65 635.24 z" />
<path transform="translate(0,0)" fill="rgb(28,51,93)" d="M 702.624 857.327 C 735.76 855.599 769.643 856.924 802.858 856.881 C 817.55 856.863 851.034 854.839 863.816 857.822 C 870.207 859.313 873.411 863.821 876.818 869.062 C 878.758 891.235 877.276 914.676 877.253 936.977 C 877.218 970.605 878.017 1004.42 876.863 1038.02 C 873.27 1044.07 870.818 1046.82 864.355 1049.72 C 833.593 1051.76 801.658 1050.12 770.801 1050.13 C 752.026 1050.14 722.094 1052.19 704.222 1049.24 C 697.17 1048.08 694.312 1043.81 690.49 1038.2 C 689.25 1022.27 688.482 875.664 691.054 868.234 C 693.082 862.377 697.209 859.778 702.624 857.327 z" />
<path transform="translate(0,0)" fill="rgb(126,215,233)" d="M 726.038 894.096 L 841.019 894.008 L 840.926 968.832 C 840.919 981.911 839.991 995.802 841.493 1008.76 C 841.091 1011.33 841.593 1011.54 839.438 1013.25 C 826.1 1013.25 730.9 1014.9 726.423 1012.37 L 725.492 1008.35 C 727.019 994.778 726.15 980.455 726.138 966.776 L 726.038 894.096 z" />
<path transform="translate(0,0)" fill="rgb(28,51,93)" d="M 703.795 598.186 C 733.579 596.962 763.847 597.958 793.683 597.943 C 812.008 597.934 851.071 595.634 866.264 599.451 C 869.807 600.341 873.289 603.882 875.075 606.973 C 876.717 609.816 877.445 612.894 877.72 616.144 C 879.096 632.409 878.712 770.912 876.331 778.404 C 874.426 784.397 869.712 786.747 864.423 789.414 C 842.165 791.919 817.892 790.085 795.354 790.103 L 741.697 790.122 C 729.259 790.12 715.594 791.213 703.372 788.584 C 698.173 787.467 695.524 785.907 692.776 781.26 C 690.936 778.148 690.404 775.3 690.14 771.717 C 689.08 757.343 688.848 616.648 691.124 609.918 C 693.22 603.723 698.104 600.716 703.795 598.186 z" />
<path transform="translate(0,0)" fill="rgb(126,215,233)" d="M 726.191 635.327 C 764.822 636.022 803.531 635.516 842.17 635.45 C 841.894 675.238 841.894 715.028 842.173 754.816 C 829.356 756.005 815.8 755.181 802.887 755.188 L 725.983 755.181 L 726.191 635.327 z" />
<path transform="translate(0,0)" fill="rgb(28,51,93)" d="M 1238.82 857.217 C 1266.64 856.063 1294.83 856.971 1322.68 856.967 C 1344.74 856.964 1367.43 855.801 1389.43 857.106 C 1395.78 857.483 1402.11 857.892 1406.41 863.083 C 1408.71 865.852 1410.26 868.994 1410.7 872.586 C 1412.9 890.511 1411.1 923.203 1411.09 942.417 C 1411.06 972.24 1412.98 1009.25 1410.3 1038.4 C 1406.5 1044.16 1403.59 1047.05 1397.23 1049.84 C 1365.48 1051.19 1333.18 1050.09 1301.37 1050.11 C 1283.38 1050.12 1254.52 1052.22 1238.14 1048.96 C 1231.86 1047.71 1228.9 1043.28 1225.47 1038.27 C 1223.77 1022.77 1223.22 877.912 1226.44 868.586 C 1228.47 862.693 1233.46 859.702 1238.82 857.217 z" />
<path transform="translate(0,0)" fill="rgb(126,215,233)" d="M 1260.47 894.001 L 1374.03 894.014 C 1374.03 901.502 1373.96 908.989 1373.83 916.476 C 1374.07 948.793 1374.13 981.112 1374.03 1013.43 C 1356.87 1013.02 1269.44 1015.22 1261.01 1012.43 C 1260.42 1010.49 1260.35 1009.19 1260.51 1007.17 C 1261.32 969.518 1260.66 931.667 1260.47 894.001 z" />
<path transform="translate(0,0)" fill="rgb(28,51,93)" d="M 971.799 857.256 C 1004.1 855.406 1037.45 856.962 1069.87 856.9 C 1085.45 856.871 1116.58 854.974 1130.25 857.511 C 1134.48 858.296 1138.96 861.428 1141.33 864.994 C 1143.89 868.847 1144.53 874.587 1144.84 879.076 C 1146.43 902.349 1144.65 926.72 1144.71 950.131 L 1144.85 1001.91 C 1144.88 1013.93 1145.52 1026.43 1143.71 1038.33 C 1140.55 1043.38 1137.24 1046.6 1132.15 1049.72 C 1100.98 1051.58 1068.77 1050.08 1037.48 1050.09 C 1018.34 1050.1 992.531 1052.04 974.156 1049.38 C 966.977 1048.34 963.976 1044.24 959.96 1038.62 C 957.926 1024.84 957.707 873.858 960.065 867.655 C 962.293 861.791 966.267 859.609 971.799 857.256 z" />
<path transform="translate(0,0)" fill="rgb(126,215,233)" d="M 995.915 894.083 L 1108.23 894.024 C 1107.96 932.048 1106.98 970.491 1108.18 1008.49 L 1107.91 1012.02 L 1106.38 1013.2 C 1095.36 1013.26 1000.08 1014.27 997.645 1013.18 C 997.047 1012.92 996.594 1012.4 996.069 1012.01 L 995.594 1007.67 C 997.167 969.98 995.947 931.828 995.915 894.083 z" />
<path transform="translate(0,0)" fill="rgb(28,51,93)" d="M 703.762 1134.15 C 723.434 1133.43 855.161 1132.16 864.454 1135.7 C 867.535 1136.88 870.782 1140.63 872.326 1143.47 C 874.058 1146.66 874.583 1149.8 874.813 1153.39 C 875.884 1170.1 876.202 1305.66 873.532 1313.38 C 871.566 1319.06 866.921 1322.36 861.785 1324.97 C 830.959 1326.27 799.659 1325.21 768.778 1325.26 C 750.054 1325.29 721.485 1327.4 703.947 1324.13 C 699.278 1323.26 696.173 1321.87 693.56 1317.77 C 691.351 1314.31 690.396 1310.4 690.127 1306.34 C 689.07 1290.37 688.924 1153.21 691.033 1146.48 C 693.008 1140.17 698.116 1136.88 703.762 1134.15 z" />
<path transform="translate(0,0)" fill="rgb(126,215,233)" d="M 726.118 1171.1 C 763.669 1171.95 801.632 1172.12 839.176 1171.01 L 839.217 1290.79 C 825.273 1289.36 810.711 1290.11 796.686 1290.15 L 726.022 1290.36 L 726.118 1171.1 z" />
<path transform="translate(0,0)" fill="rgb(28,51,93)" d="M 976.138 598.234 C 1004.85 596.82 1034.18 597.996 1062.98 597.938 C 1081.76 597.9 1113.16 595.745 1130.5 599.121 C 1135.77 600.148 1139.25 602.669 1142.1 607.325 C 1144.15 610.66 1144.29 614.189 1144.51 617.987 C 1145.48 634.302 1146.34 769.583 1143.67 777.456 C 1141.45 783.972 1136.3 787.048 1130.33 789.733 C 1106.38 790.849 1082.04 790.077 1058.04 790.099 C 1034.3 790.12 1010.22 790.949 986.522 789.999 C 980.174 789.744 969.729 789.398 965.413 784.296 C 963.41 781.928 961.861 778.992 961.398 775.907 C 958.654 757.614 960.641 726.664 960.676 707.148 C 960.733 675.145 959.077 642.323 961.19 610.456 C 965.101 603.707 968.576 600.425 976.138 598.234 z" />
<path transform="translate(0,0)" fill="rgb(126,215,233)" d="M 997.069 635.163 C 1033.94 636.532 1071.37 635.767 1108.26 635.133 C 1107.99 674.477 1108.07 713.823 1108.49 753.165 L 1108.13 754.103 C 1104.49 756.584 1009.99 755.144 997.082 755.141 L 997.069 635.163 z" />
<path transform="translate(0,0)" fill="rgb(247,158,70)" d="M 717.532 240.23 C 752.508 239.02 787.833 240.021 822.841 240.02 L 1024.74 240.024 L 1234.74 240.026 C 1272.04 240.011 1309.64 239.006 1346.91 240.148 C 1350.52 240.259 1354.09 240.647 1357.5 241.897 C 1361.87 243.493 1365.69 245.851 1367.67 250.192 C 1369.72 254.706 1370.58 259.847 1370.93 264.762 C 1372.54 286.951 1371.11 310.232 1371.08 332.521 C 1371.04 353.925 1372.39 376.245 1371.01 397.551 C 1370.76 401.372 1370.22 405.107 1368.73 408.664 C 1365.6 416.182 1359.18 419.918 1351.94 422.822 C 1319.51 424.501 1286.49 423.237 1254 423.217 L 1075.03 423.206 L 845.522 423.215 C 805.064 423.226 764.352 424.286 723.927 423.041 C 718.938 422.888 714.704 422.535 710.252 420.059 C 704.027 416.597 701.507 412.741 699.706 405.884 C 695.474 389.771 698.007 329.976 698.049 310.064 C 698.08 294.766 696.804 278.589 697.904 263.409 C 698.233 258.869 699.154 254.179 701.535 250.234 C 705.126 244.285 710.999 241.645 717.532 240.23 z" />
<path transform="translate(0,0)" fill="rgb(28,51,93)" d="M 905.823 273.253 C 938.067 267.032 969.209 288.26 975.205 320.547 C 981.2 352.833 959.756 383.826 927.428 389.597 C 895.418 395.31 864.795 374.122 858.858 342.152 C 852.921 310.182 873.896 279.412 905.823 273.253 z" />
<path transform="translate(0,0)" fill="rgb(247,158,70)" d="M 912.442 298.198 C 917.049 297.91 921.802 297.769 926.244 299.221 C 933.692 301.655 939.474 307.307 942.731 314.353 C 947.002 323.594 947.089 335.477 943.452 344.932 C 939.642 354.836 933.252 359.846 923.823 363.785 C 917.223 364.176 911.933 364.625 905.854 361.434 C 898.366 357.504 893.477 350.462 891.343 342.38 C 888.709 332.403 889.509 320.053 894.884 311.073 C 899.046 304.12 904.731 300.28 912.442 298.198 z" />
<path transform="translate(0,0)" fill="rgb(28,51,93)" d="M 809.514 273.411 C 819.571 272.827 829.728 273.086 839.801 273.074 C 840.173 295.67 839.844 318.33 839.849 340.933 C 839.852 356.489 840.676 372.527 839.164 387.995 C 829.387 388.388 819.566 388.22 809.781 388.225 C 808.591 373.676 809.329 358.611 809.833 344.028 L 772.82 344.026 C 772.902 358.749 773.081 373.471 772.56 388.188 C 764.208 388.43 751.255 390.257 743.609 387.067 C 739.666 374.22 741.929 292.429 742.184 273.277 L 772.746 273.065 C 773.373 287.61 772.855 302.33 772.774 316.894 C 785.023 316.813 797.273 316.861 809.522 317.037 C 809.371 302.495 809.369 287.953 809.514 273.411 z" />
<path transform="translate(0,0)" fill="rgb(28,51,93)" d="M 1174.39 273.083 L 1249.25 273.309 C 1249.22 281.848 1249.13 290.386 1248.96 298.923 C 1234 299.101 1219.02 298.92 1204.06 298.894 L 1203.97 316.879 C 1216.48 316.699 1228.99 316.76 1241.5 317.063 C 1241.95 325.176 1241.82 333.197 1241.6 341.316 C 1229.65 341.161 1217.01 340.246 1205.14 341.445 C 1203.4 343.883 1204 347.611 1204.01 350.5 L 1204 362.807 L 1249.03 362.811 C 1249.13 371.257 1248.93 379.724 1248.85 388.172 C 1224.31 389.132 1199.09 388.948 1174.55 388.096 C 1173.73 373.959 1174.2 359.563 1174.19 345.392 C 1174.09 321.289 1174.16 297.185 1174.39 273.083 z" />
<path transform="translate(0,0)" fill="rgb(28,51,93)" d="M 1023.81 272.351 C 1024.7 272.28 1025.6 272.229 1026.5 272.227 C 1036.48 272.196 1053.6 273.925 1060.68 281.499 C 1062.85 283.818 1063.7 286.399 1063.48 289.537 C 1063.16 294.309 1059.74 300.152 1056.31 303.339 C 1050.7 304.61 1039.16 297.78 1032.43 297.218 C 1028.68 296.904 1024.94 297.447 1022.2 300.301 C 1020.28 302.3 1019.5 304.759 1019.68 307.505 C 1020.35 317.556 1052 323.816 1062.14 334.329 C 1067.77 340.158 1070.21 347.867 1069.92 355.883 C 1069.54 365.681 1065.25 374.92 1058.02 381.545 C 1048.47 390.328 1036.06 391.22 1023.75 390.55 C 1008.28 389.278 996.84 385.147 985.406 374.179 C 987.615 368.059 991.399 358.78 997.092 355.379 C 1003.63 355.67 1011.29 361.525 1017.62 363.77 C 1022.96 365.663 1031.4 368.069 1036.61 364.773 C 1039.67 362.834 1040.75 359.803 1041.46 356.449 C 1037.39 344.61 1011.89 341.135 1001.81 334.141 C 995.207 329.555 990.252 323.245 988.887 315.18 C 987.363 306.169 989.512 294.684 994.853 287.199 C 1001.71 277.588 1012.64 273.96 1023.81 272.351 z" />
<path transform="translate(0,0)" fill="rgb(28,51,93)" d="M 1078.24 273.307 C 1105.96 272.711 1134.31 272.338 1162 273.447 C 1162.27 283.36 1162.05 293.26 1161.86 303.173 C 1153.5 303.366 1145.1 303.24 1136.74 303.249 L 1136.86 366.34 C 1136.9 373.668 1136.67 380.906 1136.22 388.219 C 1126.35 388.716 1116.3 388.847 1106.45 387.995 C 1104.42 360.212 1105.95 331.34 1105.98 303.44 C 1099.19 303.088 1090.29 305.578 1084.03 304.127 C 1081.63 303.571 1079.58 302.637 1078.32 300.403 C 1075.33 295.134 1076.34 278.884 1078.24 273.307 z" />
<path transform="translate(0,0)" fill="rgb(28,51,93)" d="M 1265.86 273.21 C 1276.34 273.066 1286.82 273.136 1297.29 273.42 C 1298.37 303.083 1297.49 333.043 1297.07 362.728 L 1331.9 362.787 C 1332.02 371.247 1331.96 379.709 1331.73 388.167 C 1310.03 389.056 1287.76 388.96 1266.05 388.205 C 1265.22 349.939 1265.85 311.49 1265.86 273.21 z" />
<path transform="translate(0,0)" fill="rgb(70,162,107)" d="M 436.638 842.341 C 441.116 841.47 446.563 841.535 451.13 841.592 C 475.596 841.899 499.72 853.156 516.608 870.744 C 535.072 889.973 546.672 919.067 545.494 945.796 C 544.957 957.973 542.142 969.931 541.999 982.163 L 541.99 983.677 C 560.497 1004.26 575.045 1022.84 581.03 1050.57 C 588.719 1086.29 581.65 1123.6 561.427 1154.03 C 540.257 1186.04 507.237 1206.28 469.999 1213.73 C 470.948 1171.84 470.268 1129.81 470.23 1087.91 C 470.213 1069.11 472.339 1046.66 470.105 1028.4 C 469.665 1024.81 467.782 1021.37 465.234 1018.83 C 461.926 1015.53 457.427 1013.7 452.754 1013.76 C 448.344 1013.84 443.68 1015.83 440.731 1019.16 C 432.697 1028.24 436.053 1067.84 436.124 1080.25 L 435.961 1131.84 C 426.881 1122.29 412.288 1102.79 399.625 1099.6 C 396.164 1098.72 387.45 1101.68 384.458 1104.02 C 381.803 1106.1 380.15 1108.57 379.72 1111.95 C 379.023 1117.43 380.984 1123.29 383.954 1127.84 C 390.257 1137.49 401.257 1145.46 409.626 1153.37 C 418.976 1162.21 428.099 1171.94 436.082 1182.04 L 436.173 1216.22 C 412.155 1215.35 388.704 1206.56 369.072 1192.87 C 340.403 1172.89 319.537 1140.62 313.563 1106.18 C 307.728 1072.53 314.366 1038.56 333.889 1010.42 C 340.122 1001.43 348.069 993.848 354.299 984.9 L 354.894 984.028 C 354.298 972.185 351.951 960.543 351.12 948.736 C 349.413 924.49 358.226 898.864 372.828 879.686 C 388.667 858.884 410.806 845.892 436.638 842.341 z" />
<path transform="translate(0,0)" fill="rgb(247,158,70)" d="M 1026.68 1150.16 C 1058.97 1149.66 1091.31 1150.57 1123.59 1149.69 C 1121.92 1232.93 1123.02 1316.59 1123.42 1399.84 L 979.837 1399.6 L 978.107 1399 C 975.646 1395.13 977.301 1177.79 977.17 1150.01 C 993.672 1149.85 1010.18 1149.9 1026.68 1150.16 z" />
<path transform="translate(0,0)" fill="rgb(242,166,66)" d="M 977.17 1150.01 C 993.672 1149.85 1010.18 1149.9 1026.68 1150.16 C 1019.87 1155.14 984.926 1148.15 980.294 1153.43 C 979.91 1153.86 979.487 1156.3 979.431 1156.9 C 978.483 1167.08 979.665 1177.9 979.532 1188.17 C 981.019 1180.15 979.615 1171.55 980.932 1163.38 C 982.305 1190.9 981.271 1218.72 981.207 1246.28 C 981.155 1268.61 982.394 1291.91 980.341 1314.08 L 979.729 1298.48 C 979.472 1313.91 977.342 1388.3 981.128 1397.46 L 979.837 1399.6 L 978.107 1399 C 975.646 1395.13 977.301 1177.79 977.17 1150.01 z" />
<path transform="translate(0,0)" fill="rgb(71,120,194)" d="M 594.817 475.241 C 660.248 476.803 726.01 475.507 791.47 475.527 L 1258.67 475.549 C 1339.05 475.539 1419.74 473.859 1500.07 475.711 L 1500.06 508.25 L 1499.91 512.013 C 1497.49 513.715 1494.44 513.36 1491.52 513.435 C 1466.31 514.087 1440.91 513.39 1415.68 513.412 L 1244.18 513.355 L 841.134 513.383 C 759.019 513.34 676.844 512.633 594.737 513.504 L 594.817 475.241 z" />
<path transform="translate(0,0)" fill="rgb(28,51,93)" d="M 878.713 1529.96 C 914.078 1524.81 946.873 1549.44 951.796 1584.83 C 956.718 1620.23 931.887 1652.87 896.459 1657.57 C 861.347 1662.23 829.062 1637.66 824.183 1602.58 C 819.305 1567.5 843.663 1535.06 878.713 1529.96 z M 893.981 1631.27 C 904.078 1628.18 910.743 1623.74 915.704 1613.96 C 921.261 1602.99 922.028 1588.88 918.096 1577.27 C 915.262 1568.91 909.789 1561.88 901.768 1557.98 C 895.71 1555.03 889.835 1555.1 883.302 1555.29 C 874.591 1557.21 867.832 1561.39 862.921 1568.99 C 856.168 1579.43 855.303 1593.71 858.254 1605.54 C 860.572 1614.84 865.737 1623.36 874.289 1628.09 C 880.498 1631.52 887.04 1631.95 893.981 1631.27 z" />
<path transform="translate(0,0)" fill="rgb(28,51,93)" d="M 867.992 1721.48 L 872.586 1721.9 C 878.006 1726.41 894.102 1775.33 897.154 1785.24 C 904.512 1763.91 913.137 1742.89 921.304 1721.86 C 931.638 1721.78 941.972 1721.77 952.306 1721.83 C 951.383 1757.61 952.623 1793.44 951.373 1829.21 C 943.701 1829.06 936.01 1829.17 928.335 1829.16 L 928.016 1773.75 L 927.535 1771.87 L 926.373 1771.79 C 919.166 1782.95 911.537 1813.36 905.393 1827.93 L 889.406 1827.96 C 881.798 1807.47 874.8 1786.44 865.897 1766.49 C 868.505 1786.87 867.177 1808.58 866.918 1829.1 C 859.28 1829.03 851.623 1829.23 843.985 1829.3 L 844.031 1721.91 L 867.992 1721.48 z" />
<path transform="translate(0,0)" fill="rgb(28,51,93)" d="M 1802.35 1721.95 C 1812.79 1721.45 1823.3 1721.64 1833.76 1721.59 C 1832.95 1734.18 1833.57 1747.16 1833.59 1759.79 L 1833.79 1829.15 C 1825.84 1829.01 1817.9 1829.38 1809.95 1829.69 C 1810.46 1819.26 1810.11 1808.7 1810.08 1798.25 L 1809.89 1767.47 C 1800.49 1786.72 1796.88 1808.87 1786.96 1828.05 L 1770.97 1827.98 C 1764.5 1806.96 1755.65 1786.07 1748.02 1765.4 L 1747.95 1829.19 L 1725.99 1829.16 C 1727.02 1793.54 1726.21 1757.57 1726 1721.92 C 1736.06 1721.43 1746.22 1721.68 1756.29 1721.67 C 1765.04 1741.86 1772.06 1763.55 1779.18 1784.39 C 1787.47 1763.86 1794.45 1742.66 1802.35 1721.95 z" />
<path transform="translate(0,0)" fill="rgb(28,51,93)" d="M 321.994 1721.61 C 324.395 1724.09 323.278 1817.46 323.281 1829.05 L 300.256 1829.17 C 300.371 1808.15 300.292 1787.13 300.016 1766.12 C 293.396 1786.69 284.929 1806.69 278.238 1827.28 C 272.647 1827.67 267.021 1827.83 261.421 1828.07 C 254.055 1806.67 246.407 1785.36 238.479 1764.16 C 239.082 1772.82 238.935 1781.57 239.018 1790.25 C 239.144 1803.25 239.046 1816.25 238.722 1829.24 C 231.104 1828.95 223.419 1829.15 215.792 1829.15 C 216.915 1793.48 216.008 1757.52 216.033 1721.81 C 226.708 1721.76 237.384 1721.83 248.057 1722.04 C 253.79 1743.01 263.378 1762.78 269.71 1783.58 C 278.7 1763.38 284.786 1741.93 293.695 1721.66 L 321.994 1721.61 z" />
<path transform="translate(0,0)" fill="rgb(28,51,93)" d="M 699.957 1531.03 C 709.327 1530.67 718.707 1530.89 728.079 1531.01 C 727.876 1546.28 728.054 1561.57 728.057 1576.83 C 744.013 1577.32 760.023 1577.04 775.987 1577.01 C 775.873 1561.64 775.871 1546.27 775.98 1530.9 L 803.889 1530.91 C 803.866 1542.55 804.93 1652.16 803.686 1654.54 C 803.418 1655.06 802.903 1655.4 802.511 1655.83 L 799.25 1655.94 L 775.649 1656.07 L 775.88 1603.02 L 728.007 1603.06 C 728.073 1620.71 728.001 1638.36 727.792 1656.01 C 718.539 1655.85 709.261 1656.05 700.006 1656.12 L 699.957 1531.03 z" />
<path transform="translate(0,0)" fill="rgb(28,51,93)" d="M 1005.11 1529.27 C 1023.52 1528.18 1038.92 1530.16 1053.79 1541.88 C 1051.04 1549.87 1047.9 1557.53 1043.91 1564.98 C 1037.73 1561.18 1030.96 1557.59 1023.84 1555.94 C 1017.58 1554.5 1006.46 1553.53 1001.02 1557.69 C 998.408 1559.68 997.109 1562.18 996.946 1565.44 C 1000.37 1577.3 1035.04 1583.01 1046.89 1593.13 C 1053.85 1599.08 1057.98 1607.13 1058.58 1616.28 C 1059.21 1625.96 1055.85 1637.25 1049.23 1644.46 C 1039.56 1654.99 1025.37 1657.73 1011.75 1658.34 C 994.214 1659.39 978.652 1653.71 964.669 1643.6 C 968.016 1635.41 971.763 1628.12 977.256 1621.15 C 989.366 1626.96 1001.3 1633.51 1015.22 1631.75 C 1020.25 1631.12 1024.66 1629.43 1027.44 1624.88 C 1028.65 1622.89 1029.12 1621.15 1028.24 1618.91 C 1024.66 1609.79 994.556 1602.77 985.158 1597.3 C 976.731 1592.4 969.809 1585.04 967.395 1575.39 C 964.932 1565.55 967.755 1554.82 973.313 1546.52 C 980.865 1535.24 992.414 1531.51 1005.11 1529.27 z" />
<path transform="translate(0,0)" fill="rgb(28,51,93)" d="M 1185.02 1530.65 L 1263.05 1530.75 L 1263.13 1556.27 C 1246.52 1556.03 1229.9 1556.01 1213.29 1556.23 C 1214.02 1564.66 1213.78 1573.26 1213.86 1581.72 C 1227.52 1582.13 1241.25 1581.72 1254.93 1582 C 1255.06 1590.05 1254.83 1597.98 1254.35 1606.01 C 1240.83 1605.67 1227.27 1605.91 1213.74 1605.97 L 1213.5 1614.93 L 1213.66 1630.02 L 1264.04 1629.92 L 1264.11 1655.96 L 1184.77 1656.05 L 1185.02 1530.65 z" />
<path transform="translate(0,0)" fill="rgb(28,51,93)" d="M 1074.25 1721.49 C 1076.89 1721.4 1078.98 1721.67 1081.54 1722.17 C 1091.12 1730.78 1113.17 1770.56 1120 1783.65 C 1121.34 1763.3 1120.33 1742.26 1120.16 1721.84 C 1128.26 1721.51 1136.4 1721.72 1144.51 1721.76 C 1143.83 1757.64 1144.46 1793.56 1144.18 1829.45 C 1136.72 1828.97 1129.08 1829.36 1121.61 1829.44 C 1106.95 1807.6 1093.03 1784.34 1080.1 1761.43 C 1081.01 1784.03 1080.77 1806.72 1080.76 1829.33 C 1072.87 1829.09 1064.93 1829.28 1057.03 1829.29 C 1057.6 1793.41 1056.99 1757.45 1057.2 1721.55 L 1074.25 1721.49 z" />
<path transform="translate(0,0)" fill="rgb(28,51,93)" d="M 446.124 1722.03 C 455.378 1721.54 464.649 1721.47 473.911 1721.79 C 487.443 1740.91 498.645 1762.4 510.457 1782.63 C 510.857 1762.48 510.261 1742.2 510.117 1722.04 C 518.086 1721.52 525.999 1721.75 533.972 1721.96 C 533.205 1757.35 534.653 1792.81 533.575 1828.18 C 530.195 1829.75 525.435 1829.14 521.75 1829.12 L 510.848 1829.04 C 497.755 1805.67 483.997 1781.78 469.319 1759.38 C 469.69 1782.65 469.904 1805.92 469.961 1829.19 C 462.106 1828.99 454.215 1829.2 446.356 1829.26 C 447.209 1793.68 447.033 1757.61 446.124 1722.03 z" />
<path transform="translate(0,0)" fill="rgb(28,51,93)" d="M 693.456 1719.35 C 698.497 1718.88 703.777 1719.21 708.793 1719.9 C 718.215 1721.2 730.925 1724.6 736.562 1732.97 C 737.768 1734.76 737.386 1737.37 736.768 1739.3 C 735.415 1743.54 730.029 1749.55 725.893 1751.19 C 721.473 1752.94 711.53 1745.12 707.084 1743.36 C 701.189 1741.03 692.546 1742.31 686.937 1744.86 C 679.69 1748.21 674.087 1754.32 671.382 1761.82 C 667.447 1772.49 669.838 1784.77 674.775 1794.75 C 677.731 1800.72 682.371 1803.98 688.62 1806.04 C 697.927 1809.11 705.802 1806.75 714.057 1802.4 L 714.234 1788 L 692.062 1788.07 C 692.11 1781.01 692.206 1773.95 692.351 1766.89 L 706.75 1766.54 L 738.086 1766.87 L 737.851 1817.11 C 730.571 1823.11 722.72 1827.33 713.398 1829.21 C 698.055 1832.31 679.158 1830.95 666.113 1821.77 C 654.25 1813.42 646.999 1799.43 644.907 1785.25 C 642.535 1769.18 645.8 1751.4 655.913 1738.44 C 665.491 1726.16 678.443 1721.06 693.456 1719.35 z" />
<path transform="translate(0,0)" fill="rgb(28,51,93)" d="M 370.43 1721.74 C 379.975 1721.26 389.706 1721.77 399.268 1721.87 L 434.024 1829.18 L 407.497 1829.13 C 405.412 1821.98 403.758 1813.93 400.596 1807.22 L 369.117 1807.13 C 366.438 1814.43 364.281 1822.01 361.9 1829.42 C 353.214 1828.88 344.382 1829.17 335.676 1829.14 C 349.342 1794.39 359.034 1757.35 370.43 1721.74 z M 374.56 1786.04 L 386.685 1786.15 L 394.155 1786.03 L 394.891 1785.12 C 393.128 1778.02 388.657 1759.94 384.235 1754.65 C 380.83 1765.07 377.466 1775.47 374.56 1786.04 z" />
<path transform="translate(0,0)" fill="rgb(28,51,93)" d="M 581.679 1721.44 C 590.632 1721.44 599.585 1721.54 608.536 1721.73 C 612.664 1732.05 615.71 1743.1 619.18 1753.67 L 643.697 1829.35 C 634.905 1829.02 626.051 1829.19 617.251 1829.16 C 615.6 1823.81 612.95 1810.46 608.79 1807.33 L 578.924 1807 C 577.031 1814.46 574.496 1821.8 572.161 1829.14 C 563.314 1828.98 554.463 1829.12 545.625 1829.55 C 551.945 1811.96 575.471 1730.31 581.679 1721.44 z M 584.153 1786 L 594.75 1786.17 C 598.305 1786.17 602.09 1786.58 605.486 1785.48 C 602.416 1777.11 599.225 1760.32 594.759 1753.88 C 591.627 1764.71 588.089 1775.43 584.153 1786 z" />
<path transform="translate(0,0)" fill="rgb(28,51,93)" d="M 1315.53 1719.33 C 1330.75 1717.61 1345.31 1720.65 1357.66 1729.86 C 1355.78 1737.03 1353.24 1743.79 1350.52 1750.68 C 1344.85 1747.76 1338.75 1744.61 1332.5 1743.13 C 1326.67 1741.76 1316.75 1741.35 1311.57 1744.87 C 1309.52 1746.27 1308.45 1747.89 1308.02 1750.33 C 1310.77 1760.88 1341.19 1767.12 1350.44 1774.35 C 1356.64 1779.2 1361.21 1785.84 1362.12 1793.79 C 1363.08 1802.18 1359.75 1811.81 1354.55 1818.36 C 1346.72 1828.21 1334.94 1829.59 1323.3 1830.89 C 1306.38 1830.93 1292.92 1828.27 1279.18 1817.82 C 1281.18 1810.25 1283.84 1803.69 1287.54 1796.81 C 1296 1800.67 1303.92 1805.65 1313.2 1807.39 C 1319.25 1808.52 1325.59 1808.35 1330.65 1804.44 C 1333.13 1802.52 1333.84 1800.89 1334.14 1797.84 C 1329.2 1786.42 1306.46 1783.5 1296.12 1776.89 C 1288.9 1772.26 1283.12 1765.34 1281.61 1756.72 C 1280.12 1748.14 1283.51 1739.25 1288.64 1732.46 C 1295.45 1723.44 1304.86 1720.73 1315.53 1719.33 z" />
<path transform="translate(0,0)" fill="rgb(28,51,93)" d="M 1081.44 1530.5 C 1109.96 1530.65 1138.49 1530.64 1167.02 1530.48 L 1166.93 1557.91 C 1156.46 1557.21 1145.72 1557.65 1135.19 1557.23 C 1134.84 1582.89 1135.13 1608.59 1135.11 1634.25 L 1134.98 1655.92 L 1105.06 1656 C 1104.63 1623.27 1106 1590.35 1104.55 1557.66 C 1093.31 1557.86 1082.07 1557.92 1070.83 1557.85 C 1069.93 1549 1070.16 1539.91 1070 1531.01 L 1081.44 1530.5 z" />
<path transform="translate(0,0)" fill="rgb(28,51,93)" d="M 1497.09 1719.35 C 1497.52 1719.31 1497.94 1719.26 1498.37 1719.22 C 1512.65 1717.97 1527.48 1722.04 1538.51 1731.13 C 1536.36 1738.39 1534.18 1745.09 1530.4 1751.7 C 1526.6 1749.24 1522.59 1747.07 1518.32 1745.54 C 1511.54 1743.12 1501.82 1739.8 1495.03 1743.92 C 1491.9 1745.82 1490.26 1747.78 1489.46 1751.26 C 1492.79 1760.89 1520.71 1766.9 1529.62 1773.09 C 1536.63 1777.95 1542.03 1785.24 1543.18 1793.84 C 1544.28 1802.09 1541.22 1811.61 1536.12 1818.11 C 1528.63 1827.65 1517.49 1829.48 1506.24 1830.87 C 1489.43 1831.1 1476.37 1828.54 1462.81 1818.11 C 1465.18 1810.98 1468.57 1804.7 1472.29 1798.21 C 1480.66 1802.35 1489.58 1807.36 1499.08 1808.03 C 1503.59 1808.35 1510.54 1807.14 1513.76 1803.69 C 1515.56 1801.76 1515.96 1800 1516.07 1797.47 C 1512.15 1787.06 1485.51 1782.51 1475.63 1774.96 C 1469.53 1770.28 1464.29 1763.78 1463.45 1755.9 C 1462.53 1747.27 1466.3 1737.63 1471.66 1730.97 C 1478.19 1722.84 1487.26 1720.65 1497.09 1719.35 z" />
<path transform="translate(0,0)" fill="rgb(28,51,93)" d="M 1642.03 1721.6 C 1664.46 1722.93 1687.65 1721.49 1710.17 1721.73 C 1710.42 1729.08 1710.13 1736.51 1710.06 1743.86 C 1695.97 1743.11 1681.78 1744.04 1667.66 1743.33 C 1667.42 1750.47 1667.68 1757.65 1667.8 1764.79 C 1679.23 1764.87 1690.63 1765.01 1702.05 1764.41 L 1701.56 1785.3 C 1690.57 1785.15 1679.58 1785.23 1668.6 1785.53 C 1666.77 1787.84 1667.27 1792.34 1667.22 1795.25 L 1667.25 1806.01 L 1710.86 1806.13 C 1710.9 1813.87 1710.54 1821.39 1709.79 1829.09 C 1687.23 1828.99 1664.67 1829.05 1642.1 1829.26 C 1643.26 1793.54 1642.26 1757.35 1642.03 1721.6 z" />
<path transform="translate(0,0)" fill="rgb(28,51,93)" d="M 756.634 1721.06 C 778.937 1723.27 802.587 1721.73 825.027 1721.69 L 824.851 1743.83 C 810.52 1743.5 796.116 1743.82 781.777 1743.84 C 781.689 1750.88 781.884 1757.95 781.95 1764.99 L 815.764 1764.95 C 815.569 1771.68 815.935 1778.49 816.091 1785.22 L 782.08 1785.46 L 781.847 1797.42 C 781.791 1800.21 781.32 1803.19 782.811 1805.67 C 796.418 1807.29 811.18 1806.1 824.923 1805.96 L 825.084 1829.15 C 802.21 1828.63 779.22 1829.1 756.335 1829.12 C 757.285 1817.75 756.648 1805.91 756.619 1794.48 C 756.557 1770.03 756.137 1745.51 756.634 1721.06 z" />
<path transform="translate(0,0)" fill="rgb(28,51,93)" d="M 973.93 1721.95 C 996.194 1720.85 1018.96 1721.52 1041.26 1721.83 L 1041.14 1743.6 C 1027.26 1742.18 1012.04 1743.56 998.025 1743.69 L 998.084 1764.92 C 1009.94 1764.91 1021.79 1764.83 1033.65 1764.69 C 1033.34 1771.66 1033.32 1778.68 1033.16 1785.66 C 1021.97 1784.71 1010.25 1785.22 999.007 1785.39 C 997.693 1787.04 998.09 1788.8 998.022 1790.87 L 998.047 1806.03 L 1043.06 1806.1 L 1042.95 1829.1 L 973.745 1829.12 C 974.447 1793.44 973.918 1757.65 973.93 1721.95 z" />
<path transform="translate(0,0)" fill="rgb(28,51,93)" d="M 1285.82 1530.9 C 1295.68 1530.69 1305.57 1530.85 1315.43 1530.85 L 1314.98 1629.94 C 1330.93 1629.26 1348.52 1628.16 1364.35 1629.85 C 1364.42 1638.14 1364.58 1646.43 1364.84 1654.72 C 1359.58 1657.93 1296.98 1655.95 1285.71 1655.92 C 1286.8 1614.35 1285.86 1572.5 1285.82 1530.9 z" />
<path transform="translate(0,0)" fill="rgb(28,51,93)" d="M 1379.02 1721.51 C 1382.82 1721.44 1386.64 1721.64 1390.44 1721.75 C 1397.69 1735.71 1404.53 1750.12 1410.43 1764.71 C 1415.86 1750.03 1422.71 1735.7 1429.53 1721.62 L 1457.6 1721.51 C 1449.02 1739.02 1439.35 1756.14 1430.31 1773.43 C 1419.05 1792.08 1421.74 1808.27 1422.04 1829.17 L 1397.84 1829.05 C 1398.18 1817.19 1399.19 1803.81 1396.94 1792.15 C 1393.74 1775.52 1371.84 1739.93 1363.73 1721.69 L 1379.02 1721.51 z" />
<path transform="translate(0,0)" fill="rgb(28,51,93)" d="M 1240.86 1721.49 L 1242.53 1722.21 C 1243.96 1728.89 1242.95 1737.32 1242.84 1744.21 C 1233.31 1743.61 1223.61 1743.98 1214.06 1743.98 C 1213.92 1772.39 1213.91 1800.79 1214.06 1829.2 L 1188.8 1829.05 L 1188.88 1801.75 L 1188.91 1744.05 C 1179.29 1743.98 1169.67 1744.04 1160.05 1744.22 L 1160.09 1721.89 L 1240.86 1721.49 z" />
<path transform="translate(0,0)" fill="rgb(28,51,93)" d="M 1546.07 1721.97 C 1573.44 1721.33 1600.89 1721.64 1628.27 1721.54 C 1628.35 1729.05 1628.49 1736.55 1628.66 1744.05 L 1599.98 1743.85 C 1599.58 1762.04 1599.85 1780.3 1599.83 1798.5 C 1599.81 1808.75 1599.86 1818.99 1600.01 1829.24 L 1575.05 1829.06 L 1575.18 1744.01 C 1565.52 1743.92 1555.85 1744.05 1546.19 1744.09 L 1546.07 1721.97 z" />
</g></svg>