<svg version="1.1" id="Layer_1" xmlns="http://www.w3.org/2000/svg" xmlns:xlink="http://www.w3.org/1999/xlink" x="0px" y="0px"
	 width="100%" viewBox="0 0 600 450" enable-background="new 0 0 600 450" xml:space="preserve">
<path fill="#2970EC" opacity="1.000000" stroke="none" 
	d="
M381.000000,451.000000 
	C254.030106,451.000000 127.560196,451.000000 1.045149,451.000000 
	C1.045149,301.065796 1.045149,151.131592 1.045149,1.098686 
	C200.886566,1.098686 400.773224,1.098686 600.829956,1.098686 
	C600.829956,150.999847 600.829956,300.999908 600.829956,451.000000 
	C527.798218,451.000000 454.649109,451.000000 381.000000,451.000000 
M409.885132,201.982788 
	C410.232666,201.308640 410.580200,200.634506 411.326935,199.403702 
	C417.755249,188.985703 417.427307,178.363098 410.636536,170.368454 
	C399.730255,157.528610 378.510132,159.623917 370.702484,177.614609 
	C370.508270,178.437424 370.314026,179.260239 369.956696,180.674500 
	C369.830780,181.063629 369.704865,181.452744 368.979523,182.084030 
	C367.862885,183.714066 366.628723,185.276657 365.648315,186.984863 
	C358.299835,199.788544 351.084900,212.670135 343.593994,225.389389 
	C342.516602,227.218704 340.184998,228.309341 338.196472,229.365265 
	C338.196472,229.365265 337.996033,228.967819 337.992218,228.490158 
	C337.885529,228.156799 337.663116,227.944794 336.991577,227.224121 
	C326.962250,209.747330 316.982147,192.242035 306.886810,174.803467 
	C299.769806,162.509613 286.462585,158.677902 274.824432,165.410187 
	C263.796967,171.789215 260.414673,185.703598 267.263184,197.716125 
	C284.417084,227.804565 301.703674,257.817352 318.937805,287.860077 
	C323.803772,296.342407 330.891785,301.376251 340.899750,300.786285 
	C350.584839,300.215363 357.281311,294.940308 361.633942,285.821228 
	C361.691833,285.494263 361.749756,285.167267 361.978363,284.294556 
	C362.112213,283.937714 362.246063,283.580841 363.003906,283.013062 
	C363.710541,282.105560 364.536255,281.266815 365.106049,280.280304 
	C375.303955,262.624176 385.534668,244.986435 395.615601,227.263580 
	C400.189331,219.222672 404.452911,211.005341 409.088165,202.531296 
	C409.088165,202.531296 409.339111,202.209137 409.885132,201.982788 
M265.832001,235.543457 
	C253.968491,215.101654 242.190125,194.609772 230.208588,174.237396 
	C223.340973,162.560333 209.978256,158.841568 198.804825,165.163208 
	C187.315460,171.663605 183.762299,184.901978 190.360184,197.110474 
	C193.208069,202.380112 196.320999,207.506653 199.319717,212.694611 
	C213.814789,237.771805 228.285904,262.862946 242.819473,287.917816 
	C250.029404,300.347168 263.831451,304.450623 275.295868,297.691956 
	C286.923309,290.837067 289.956360,277.274445 282.680969,264.716095 
	C277.174011,255.210358 271.680206,245.697006 265.832001,235.543457 
z"/>
<path fill="#FBFDFE" opacity="1.000000" stroke="none" 
	d="
M266.006287,235.865250 
	C271.680206,245.697006 277.174011,255.210358 282.680969,264.716095 
	C289.956360,277.274445 286.923309,290.837067 275.295868,297.691956 
	C263.831451,304.450623 250.029404,300.347168 242.819473,287.917816 
	C228.285904,262.862946 213.814789,237.771805 199.319717,212.694611 
	C196.320999,207.506653 193.208069,202.380112 190.360184,197.110474 
	C183.762299,184.901978 187.315460,171.663605 198.804825,165.163208 
	C209.978256,158.841568 223.340973,162.560333 230.208588,174.237396 
	C242.190125,194.609772 253.968491,215.101654 266.006287,235.865250 
z"/>
<path fill="#FBFDFE" opacity="1.000000" stroke="none" 
	d="
M361.201111,286.107208 
	C357.281311,294.940308 350.584839,300.215363 340.899750,300.786285 
	C330.891785,301.376251 323.803772,296.342407 318.937805,287.860077 
	C301.703674,257.817352 284.417084,227.804565 267.263184,197.716125 
	C260.414673,185.703598 263.796967,171.789215 274.824432,165.410187 
	C286.462585,158.677902 299.769806,162.509613 306.886810,174.803467 
	C316.982147,192.242035 326.962250,209.747330 337.153320,227.780396 
	C337.421844,228.676743 337.648834,228.887115 337.996033,228.967819 
	C337.996033,228.967819 338.196472,229.365265 338.340942,229.892181 
	C343.997345,239.834686 349.361084,249.341293 355.067657,258.637451 
	C359.730225,266.232941 363.778625,273.883881 362.379913,283.223999 
	C362.246063,283.580841 362.112213,283.937714 361.671844,284.705200 
	C361.310577,285.446289 361.255859,285.776764 361.201111,286.107208 
z"/>
<path fill="#87ABF5" opacity="1.000000" stroke="none" 
	d="
M362.691895,283.118530 
	C363.778625,273.883881 359.730225,266.232941 355.067657,258.637451 
	C349.361084,249.341293 343.997345,239.834686 338.459595,230.080444 
	C340.184998,228.309341 342.516602,227.218704 343.593994,225.389389 
	C351.084900,212.670135 358.299835,199.788544 365.648315,186.984863 
	C366.628723,185.276657 367.862885,183.714066 369.408569,182.403656 
	C369.157471,201.413559 383.994080,210.488831 397.021637,207.803955 
	C401.131348,206.956985 404.921051,204.557175 408.857178,202.868042 
	C404.452911,211.005341 400.189331,219.222672 395.615601,227.263580 
	C385.534668,244.986435 375.303955,262.624176 365.106049,280.280304 
	C364.536255,281.266815 363.710541,282.105560 362.691895,283.118530 
z"/>
<path fill="#F9FCFD" opacity="1.000000" stroke="none" 
	d="
M408.972656,202.699677 
	C404.921051,204.557175 401.131348,206.956985 397.021637,207.803955 
	C383.994080,210.488831 369.157471,201.413559 369.708252,182.282578 
	C369.704865,181.452744 369.830780,181.063629 370.287415,180.165833 
	C370.805359,178.827377 370.992584,177.997574 371.179779,177.167770 
	C378.510132,159.623917 399.730255,157.528610 410.636536,170.368454 
	C417.427307,178.363098 417.755249,188.985703 410.861206,199.806900 
	C410.043365,200.876450 409.691223,201.542786 409.339111,202.209137 
	C409.339111,202.209137 409.088165,202.531296 408.972656,202.699677 
z"/>
<path fill="#87ABF5" opacity="1.000000" stroke="none" 
	d="
M370.941132,177.391190 
	C370.992584,177.997574 370.805359,178.827377 370.368988,179.870117 
	C370.314026,179.260239 370.508270,178.437424 370.941132,177.391190 
z"/>
<path fill="#87ABF5" opacity="1.000000" stroke="none" 
	d="
M409.612122,202.095963 
	C409.691223,201.542786 410.043365,200.876450 410.661621,200.085236 
	C410.580200,200.634506 410.232666,201.308640 409.612122,202.095963 
z"/>
<path fill="#87ABF5" opacity="1.000000" stroke="none" 
	d="
M337.994141,228.728989 
	C337.648834,228.887115 337.421844,228.676743 337.320068,228.095413 
	C337.663116,227.944794 337.885529,228.156799 337.994141,228.728989 
z"/>
<path fill="#87ABF5" opacity="1.000000" stroke="none" 
	d="
M361.417542,285.964233 
	C361.255859,285.776764 361.310577,285.446289 361.586487,284.978088 
	C361.749756,285.167267 361.691833,285.494263 361.417542,285.964233 
z"/>
</svg>