<svg version="1.1" id="Layer_1" xmlns="http://www.w3.org/2000/svg" xmlns:xlink="http://www.w3.org/1999/xlink" x="0px" y="0px"
	 width="100%" viewBox="0 0 736 736" enable-background="new 0 0 736 736" xml:space="preserve">
<path fill="#F56C5A" opacity="1.000000" stroke="none" 
	d="
M472.000000,737.000000 
	C314.666656,737.000000 157.833328,737.000000 1.000000,737.000000 
	C1.000000,491.666656 1.000000,246.333328 1.000000,1.000000 
	C246.333328,1.000000 491.666656,1.000000 737.000000,1.000000 
	C737.000000,246.333328 737.000000,491.666656 737.000000,737.000000 
	C648.833313,737.000000 560.666687,737.000000 472.000000,737.000000 
M558.658691,474.210632 
	C559.990173,471.161407 561.306030,468.105225 562.655579,465.063995 
	C586.559814,411.196838 599.622803,354.982880 599.055359,295.867096 
	C598.814697,270.793518 596.527771,245.919342 589.533020,221.725418 
	C584.223328,203.359756 575.212891,187.274368 558.897034,176.276245 
	C536.541931,161.207230 511.854095,158.326370 486.092133,163.610764 
	C457.750824,169.424240 433.583527,183.782654 412.546478,203.135757 
	C372.283356,240.175949 347.240540,286.003204 336.067535,339.452759 
	C333.343781,352.482452 332.268951,365.648285 337.687683,378.307037 
	C346.442230,398.758728 373.326111,408.346100 395.187042,399.203217 
	C412.862976,391.810577 424.787689,378.659271 433.120697,361.845123 
	C442.069031,343.789337 445.186127,324.180756 448.103271,304.552551 
	C451.091492,284.446381 453.385376,264.190186 461.361938,245.220612 
	C466.832520,232.210602 474.416748,220.868439 487.191528,213.815628 
	C499.809174,206.849579 511.813416,209.604614 518.813354,222.175323 
	C522.229309,228.309723 524.726257,235.335358 525.933838,242.255173 
	C531.577209,274.593811 525.497375,305.585388 513.706909,335.705658 
	C501.332184,367.318542 482.533630,395.217316 462.990845,422.668854 
	C450.629181,440.033142 437.785950,457.083466 426.107422,474.896606 
	C415.517029,491.050018 409.511505,508.879608 410.793152,528.737610 
	C413.041656,563.576599 441.065430,583.729309 474.717010,574.513550 
	C492.746979,569.575867 506.294769,558.294312 517.592407,544.088379 
	C534.398315,522.956177 546.650940,499.075867 558.658691,474.210632 
M222.437561,392.936005 
	C236.581253,380.529846 250.595978,367.972809 264.895599,355.749084 
	C294.200104,330.698761 317.982880,301.587219 332.428802,265.446991 
	C339.623291,247.448181 344.143372,229.041000 342.175598,209.415848 
	C339.400787,181.741791 319.775757,163.738983 292.021149,164.008194 
	C275.495544,164.168503 261.270111,170.693344 248.679062,180.987167 
	C231.000900,195.439880 218.739426,214.162292 209.232407,234.463364 
	C184.603958,287.054504 164.241119,341.274750 149.926559,397.639709 
	C143.809250,421.727234 138.540543,445.969086 138.964066,471.062378 
	C139.598419,508.648743 156.771072,535.812439 190.367752,552.487000 
	C215.575165,564.997803 242.554718,571.506836 270.313873,574.977844 
	C292.074280,577.698792 313.685791,576.949463 334.348999,568.874756 
	C359.584686,559.013245 378.971405,542.982239 386.236572,515.561707 
	C393.042206,489.875519 382.928741,462.937469 361.665222,451.233826 
	C343.805756,441.403809 324.989075,441.648621 305.999695,448.084015 
	C287.438477,454.374329 272.717773,466.617981 257.699402,478.580719 
	C249.935410,484.765076 241.591721,490.509277 232.779831,495.028839 
	C215.972397,503.649261 199.847504,498.380829 190.565689,481.941071 
	C183.002457,468.545288 184.476776,454.597961 189.413422,440.833313 
	C196.085007,422.231140 208.181046,407.233795 222.437561,392.936005 
z"/>
<path fill="#DFE3DF" opacity="1.000000" stroke="none" 
	d="
M558.474426,474.539368 
	C546.650940,499.075867 534.398315,522.956177 517.592407,544.088379 
	C506.294769,558.294312 492.746979,569.575867 474.717010,574.513550 
	C441.065430,583.729309 413.041656,563.576599 410.793152,528.737610 
	C409.511505,508.879608 415.517029,491.050018 426.107422,474.896606 
	C437.785950,457.083466 450.629181,440.033142 462.990845,422.668854 
	C482.533630,395.217316 501.332184,367.318542 513.706909,335.705658 
	C525.497375,305.585388 531.577209,274.593811 525.933838,242.255173 
	C524.726257,235.335358 522.229309,228.309723 518.813354,222.175323 
	C511.813416,209.604614 499.809174,206.849579 487.191528,213.815628 
	C474.416748,220.868439 466.832520,232.210602 461.361938,245.220612 
	C453.385376,264.190186 451.091492,284.446381 448.103271,304.552551 
	C445.186127,324.180756 442.069031,343.789337 433.120697,361.845123 
	C424.787689,378.659271 412.862976,391.810577 395.187042,399.203217 
	C373.326111,408.346100 346.442230,398.758728 337.687683,378.307037 
	C332.268951,365.648285 333.343781,352.482452 336.067535,339.452759 
	C347.240540,286.003204 372.283356,240.175949 412.546478,203.135757 
	C433.583527,183.782654 457.750824,169.424240 486.092133,163.610764 
	C511.854095,158.326370 536.541931,161.207230 558.897034,176.276245 
	C575.212891,187.274368 584.223328,203.359756 589.533020,221.725418 
	C596.527771,245.919342 598.814697,270.793518 599.055359,295.867096 
	C599.622803,354.982880 586.559814,411.196838 562.655579,465.063995 
	C561.306030,468.105225 559.990173,471.161407 558.474426,474.539368 
z"/>
<path fill="#DFE3DF" opacity="1.000000" stroke="none" 
	d="
M222.176575,393.174744 
	C208.181046,407.233795 196.085007,422.231140 189.413422,440.833313 
	C184.476776,454.597961 183.002457,468.545288 190.565689,481.941071 
	C199.847504,498.380829 215.972397,503.649261 232.779831,495.028839 
	C241.591721,490.509277 249.935410,484.765076 257.699402,478.580719 
	C272.717773,466.617981 287.438477,454.374329 305.999695,448.084015 
	C324.989075,441.648621 343.805756,441.403809 361.665222,451.233826 
	C382.928741,462.937469 393.042206,489.875519 386.236572,515.561707 
	C378.971405,542.982239 359.584686,559.013245 334.348999,568.874756 
	C313.685791,576.949463 292.074280,577.698792 270.313873,574.977844 
	C242.554718,571.506836 215.575165,564.997803 190.367752,552.487000 
	C156.771072,535.812439 139.598419,508.648743 138.964066,471.062378 
	C138.540543,445.969086 143.809250,421.727234 149.926559,397.639709 
	C164.241119,341.274750 184.603958,287.054504 209.232407,234.463364 
	C218.739426,214.162292 231.000900,195.439880 248.679062,180.987167 
	C261.270111,170.693344 275.495544,164.168503 292.021149,164.008194 
	C319.775757,163.738983 339.400787,181.741791 342.175598,209.415848 
	C344.143372,229.041000 339.623291,247.448181 332.428802,265.446991 
	C317.982880,301.587219 294.200104,330.698761 264.895599,355.749084 
	C250.595978,367.972809 236.581253,380.529846 222.176575,393.174744 
z"/>
</svg>