<svg version="1.1" id="Layer_1" xmlns="http://www.w3.org/2000/svg" xmlns:xlink="http://www.w3.org/1999/xlink" x="0px" y="0px"
	 width="100%" viewBox="0 0 441 428" enable-background="new 0 0 441 428" xml:space="preserve">
<path fill="#FEFEFE" opacity="1.000000" stroke="none" 
	d="
M1.000000,140.000000 
	C1.000000,93.333351 1.000000,47.166706 1.000000,1.000043 
	C147.999924,1.000029 294.999847,1.000029 441.999817,1.000014 
	C441.999878,143.666519 441.999878,286.333038 441.999939,428.999695 
	C295.000214,428.999786 148.000397,428.999786 1.000302,428.999878 
	C1.000000,332.833344 1.000000,236.666672 1.000000,140.000000 
M342.082764,178.500000 
	C342.082764,149.871094 342.082764,121.242195 342.082764,92.665596 
	C349.104156,91.682152 349.825531,90.834854 350.001373,83.726730 
	C350.013733,83.227066 350.012390,82.726715 350.003540,82.226929 
	C349.735138,67.067505 352.208923,66.834610 334.861786,66.996368 
	C328.014618,67.060219 321.166382,67.006844 314.987213,67.006844 
	C316.021027,62.861465 317.546051,59.278961 317.699341,55.638702 
	C318.098663,46.155640 318.107300,36.642281 317.883789,27.150143 
	C317.564575,13.594390 311.685028,7.332343 298.248535,7.274698 
	C248.420807,7.060931 198.591537,7.098031 148.763290,7.221756 
	C138.258606,7.247838 132.236481,13.752261 132.103806,24.351696 
	C131.989105,33.515526 131.814270,42.686649 132.062927,51.843769 
	C132.198715,56.844265 133.158524,61.822388 133.768494,66.995163 
	C129.121582,66.995163 123.655220,66.982788 118.188919,66.997704 
	C106.306656,67.030121 105.866943,65.496002 105.207420,80.313843 
	C105.177940,80.976204 105.269943,81.644722 105.316467,82.309601 
	C105.960396,91.511955 105.961342,91.507919 114.903534,92.568146 
	C115.201363,92.603462 115.468575,92.897087 115.654121,93.011261 
	C115.654121,130.578033 115.654121,168.082413 115.654121,205.865479 
	C111.649796,201.914719 110.542931,197.843704 110.774696,192.381943 
	C111.575294,173.515808 96.236198,157.948441 78.021996,158.204529 
	C58.960392,158.472534 43.639790,174.943436 45.239201,194.051636 
	C45.604767,198.419037 44.604771,201.544617 42.205879,204.989105 
	C31.256838,220.710449 33.651020,242.281036 47.252357,255.747391 
	C54.775074,263.195435 63.848866,267.143341 74.396400,268.939575 
	C74.396400,281.236603 74.396400,293.319794 74.396400,305.605316 
	C67.586494,305.605316 60.796394,305.712891 54.011311,305.574463 
	C47.476059,305.441132 44.345032,306.802765 44.654381,310.275238 
	C45.166786,316.027161 49.662498,314.991699 53.382137,314.992249 
	C160.038956,315.007782 266.695770,315.004974 373.352600,315.002960 
	C374.852142,315.002930 376.716064,315.528015 377.768433,314.834564 
	C379.475433,313.709747 381.432129,311.920563 381.759216,310.132965 
	C381.958038,309.046173 379.484894,307.100006 377.852386,306.173584 
	C376.685303,305.511261 374.921265,305.834961 373.423370,305.832001 
	C363.141754,305.811737 352.860016,305.821350 342.083954,305.821350 
	C342.083954,263.408173 342.083954,221.454086 342.082764,178.500000 
M409.137115,397.287964 
	C408.438232,395.418701 407.763550,393.540009 407.035950,391.681946 
	C404.625916,385.527252 404.484100,385.464905 397.646851,387.083344 
	C397.646851,395.688690 397.646851,404.277313 397.646851,413.015869 
	C399.507996,413.015869 401.108490,413.015869 403.159729,413.015869 
	C403.159729,408.503326 403.159729,404.196045 403.159729,399.888733 
	C405.186859,403.359924 406.350647,406.963837 407.866608,410.412964 
	C408.344818,411.500977 409.759064,412.841217 410.758606,412.852448 
	C411.786957,412.864044 413.276520,411.605042 413.785126,410.532532 
	C415.227020,407.492035 416.270691,404.262665 417.471222,401.107697 
	C417.825195,401.173248 418.179169,401.238770 418.533142,401.304291 
	C418.533142,405.343140 418.533142,409.381989 418.533142,413.639343 
	C420.890503,413.402679 422.655182,413.225494 424.401672,413.050171 
	C424.401672,404.033600 424.401672,395.427948 424.401672,386.606018 
	C421.600128,386.606018 419.008331,386.606018 416.503845,386.606018 
	C414.668549,391.316772 412.892029,395.876709 410.839813,401.144318 
	C410.084442,399.512238 409.744171,398.776978 409.137115,397.287964 
M172.039505,352.845459 
	C172.020081,353.676514 171.948090,354.510162 171.989548,355.338165 
	C172.323257,362.001312 176.753036,367.717010 183.160522,369.785339 
	C189.648682,371.879730 196.882416,369.528412 200.924576,364.011230 
	C204.873993,358.620636 205.138947,351.303070 201.443970,345.784637 
	C197.813202,340.362061 192.698318,337.516602 186.159897,338.508514 
	C178.480026,339.673584 173.639008,344.213318 172.039505,352.845459 
M36.220932,394.666107 
	C35.418152,396.770966 34.615368,398.875854 33.526138,401.731781 
	C32.179039,398.110107 31.105627,395.334656 30.111938,392.530975 
	C27.641590,385.560822 27.656189,385.555634 20.225327,387.070221 
	C20.225327,395.657593 20.225327,404.251587 20.225327,412.956543 
	C21.877501,412.956543 23.285887,412.956543 25.440052,412.956543 
	C25.440052,408.853027 25.440052,404.952972 25.440052,400.760315 
	C30.525673,403.867279 26.962332,413.279053 35.396759,412.854340 
	C37.162663,408.171173 38.723820,404.030975 40.284981,399.890808 
	C40.589943,399.970734 40.894901,400.050659 41.199863,400.130585 
	C41.199863,404.410950 41.199863,408.691315 41.199863,412.981140 
	C43.143806,412.981140 44.758686,412.981140 46.521881,412.981140 
	C46.521881,404.062317 46.521881,395.352966 46.521881,386.555267 
	C43.884464,386.555267 41.739258,386.555267 39.467216,386.555267 
	C38.486214,389.066711 37.527561,391.520935 36.220932,394.666107 
M179.517548,386.314850 
	C178.676407,387.047821 177.120331,387.765259 177.104004,388.516144 
	C176.927902,396.619690 176.994125,404.728485 176.994125,412.960449 
	C178.867905,412.960449 180.274521,412.960449 182.201263,412.960449 
	C182.201263,408.917450 182.201263,405.065308 182.201263,401.213196 
	C182.638535,401.097382 183.075821,400.981598 183.513092,400.865814 
	C184.348495,402.842804 184.971786,404.948639 186.074326,406.763275 
	C187.377274,408.907776 186.435242,413.322845 190.286346,412.718048 
	C191.883942,412.467102 193.148010,409.072815 194.247040,406.944427 
	C195.421600,404.669739 196.222565,402.202148 197.186615,399.818787 
	C197.488449,399.872406 197.790268,399.926025 198.092102,399.979645 
	C198.092102,404.333984 198.092102,408.688324 198.092102,413.240570 
	C200.210480,413.134552 201.822098,413.053925 203.713196,412.959290 
	C203.713196,404.121735 203.713196,395.549011 203.713196,386.988892 
	C196.486786,385.778992 196.494827,385.782043 194.038208,392.277344 
	C192.943039,395.172974 191.808212,398.053589 190.362839,401.790466 
	C188.664413,397.258514 187.223801,393.578522 185.909988,389.853790 
	C184.962219,387.166779 183.424072,385.588501 179.517548,386.314850 
M165.413681,338.847321 
	C163.673737,338.847321 161.933792,338.847321 159.839111,338.847321 
	C159.839111,342.972076 159.839111,346.411224 159.839111,349.858398 
	C155.739029,349.858398 152.013351,349.858398 147.938263,349.858398 
	C147.938263,346.124298 147.938263,342.687561 147.938263,339.058685 
	C145.517303,339.058685 143.458450,339.058685 141.359436,339.058685 
	C141.359436,349.499176 141.359436,359.706024 141.359436,369.802582 
	C143.676285,369.802582 145.627716,369.802582 148.141235,369.802582 
	C148.141235,365.395416 148.141235,361.173981 148.141235,357.054565 
	C152.327393,357.054565 155.944916,357.054565 160.119797,357.054565 
	C160.119797,361.477356 160.119797,365.700562 160.119797,369.816711 
	C162.643921,369.816711 164.599289,369.816711 166.360992,369.816711 
	C166.360992,359.407257 166.360992,349.187897 165.413681,338.847321 
M87.223602,402.252380 
	C88.659737,404.688080 90.353455,407.011810 91.472115,409.585510 
	C93.184982,413.526245 95.853737,414.006226 99.372925,412.694733 
	C99.372925,403.882690 99.372925,395.277435 99.372925,386.569977 
	C97.351875,386.569977 95.584747,386.569977 93.267540,386.569977 
	C93.267540,390.769531 93.267540,394.799438 93.267540,399.248749 
	C87.513062,395.085571 88.336143,383.810730 77.720108,386.717651 
	C77.720108,395.589508 77.720108,404.306641 77.720108,412.933655 
	C79.828461,412.933655 81.586540,412.933655 83.728577,412.933655 
	C83.728577,407.809082 83.728577,402.990814 83.728577,396.845428 
	C85.252129,399.174194 86.042221,400.381836 87.223602,402.252380 
M278.317139,370.031311 
	C279.540680,369.901672 280.764221,369.772003 281.791748,369.663116 
	C281.791748,367.408295 281.791748,365.627289 281.791748,363.251343 
	C277.674377,363.251343 273.781799,363.251343 269.577637,363.251343 
	C269.693848,361.062042 269.777039,359.494049 269.886353,357.434296 
	C273.351868,357.434296 276.421478,357.434296 279.478210,357.434296 
	C279.478210,355.174896 279.478210,353.434509 279.478210,351.226685 
	C276.096130,351.226685 273.011841,351.226685 269.657349,351.226685 
	C269.503357,348.998932 269.380524,347.221954 269.217896,344.869171 
	C273.599335,344.869171 277.674103,344.869171 281.577454,344.869171 
	C281.577454,342.555786 281.577454,340.802948 281.577454,339.000092 
	C274.995819,339.000092 268.713715,339.000092 262.510529,339.000092 
	C262.510529,349.437195 262.510529,359.646362 262.510529,370.031372 
	C267.716064,370.031372 272.536407,370.031372 278.317139,370.031311 
M225.509201,352.910706 
	C222.930344,351.766083 220.271271,350.766174 217.813171,349.403687 
	C216.864197,348.877716 216.371445,347.528717 215.670868,346.554688 
	C216.772858,345.999237 217.927780,344.894867 218.966537,344.995026 
	C221.678391,345.256531 224.339401,346.045319 227.244156,346.672028 
	C227.952789,345.068695 228.681793,343.419312 229.717834,341.075195 
	C226.514313,340.054382 223.637970,338.709717 220.629196,338.268768 
	C214.494797,337.369720 209.018875,340.934174 207.821503,346.100922 
	C206.785004,350.573517 209.362061,354.030762 215.540253,356.705536 
	C218.186951,357.851379 220.733124,359.229492 223.710938,360.691528 
	C218.986816,366.923126 214.586395,362.094574 210.000839,361.613007 
	C209.147934,363.228790 208.257996,364.914703 207.308304,366.713867 
	C211.677155,370.185364 216.179916,370.916290 221.187210,370.282562 
	C225.822021,369.695953 228.961563,367.498596 230.281937,363.024719 
	C231.550476,358.726440 229.562851,355.659485 225.509201,352.910706 
M139.352936,398.063232 
	C139.229553,399.619354 139.106155,401.175476 138.985153,402.701599 
	C141.117371,402.988861 142.695419,403.201447 145.960144,403.641296 
	C143.872330,405.599884 142.682480,407.549774 141.735489,407.438171 
	C139.473434,407.171722 135.866180,406.391785 135.427658,404.994934 
	C134.431427,401.821716 133.917206,397.640869 135.233490,394.812805 
	C136.912369,391.205811 140.798569,390.898010 144.781677,392.850189 
	C145.947296,393.421448 148.183334,391.808624 149.928757,391.196869 
	C149.049591,389.853027 148.480270,387.908966 147.238358,387.267822 
	C141.428741,384.268799 133.672150,385.951447 129.948273,390.670593 
	C125.956070,395.729797 126.066414,404.309662 130.188293,409.332550 
	C133.494553,413.361603 140.380264,414.636597 146.305084,412.781036 
	C151.732925,411.081146 150.494095,406.832458 150.578018,403.003815 
	C150.613312,401.393524 150.583908,399.781860 150.583908,397.822968 
	C146.788605,397.822968 143.487381,397.822968 139.352936,398.063232 
M230.139526,396.542236 
	C230.139526,401.986145 230.139526,407.430023 230.139526,412.863586 
	C232.440674,412.863586 234.167557,412.863586 236.405212,412.863586 
	C236.405212,407.787292 236.405212,403.020203 236.405212,398.350830 
	C242.216019,402.737305 241.349808,413.466858 251.925598,413.251892 
	C251.925598,404.150940 251.925598,395.560699 251.925598,386.811340 
	C249.889999,386.811340 248.031647,386.811340 245.794067,386.811340 
	C245.794067,391.531128 245.794067,395.881195 245.794067,400.789612 
	C235.684601,385.490997 235.684601,385.490997 230.139557,387.184265 
	C230.139557,389.931366 230.139557,392.747314 230.139526,396.542236 
M224.441788,398.641327 
	C221.678436,397.869385 218.915100,397.097473 215.881836,396.250153 
	C215.881836,395.208771 215.881836,393.815918 215.881836,392.022522 
	C219.366455,392.022522 222.617599,392.022522 225.862671,392.022522 
	C225.862671,389.899994 225.862671,388.186493 225.862671,386.511719 
	C220.222321,386.511719 214.965607,386.511719 209.731140,386.511719 
	C209.731140,395.600311 209.731140,404.292969 209.731140,413.082275 
	C215.542252,413.082275 220.997147,413.082275 226.611511,413.082275 
	C226.611511,411.189606 226.611511,409.463074 226.611511,407.256439 
	C222.926559,407.256439 219.508759,407.256439 216.001282,407.256439 
	C216.001282,405.369904 216.001282,403.982239 216.001282,402.487396 
	C218.156708,402.487396 220.081924,402.850189 221.754837,402.357086 
	C222.830856,402.039886 223.535934,400.464264 224.441788,398.641327 
M376.491577,411.760986 
	C376.869354,412.221924 377.240479,413.077728 377.625916,413.084229 
	C382.882690,413.172791 388.141479,413.143829 393.579407,413.143829 
	C393.579407,410.998413 393.579407,409.397308 393.579407,407.261658 
	C389.985535,407.261658 386.583405,407.261658 382.938080,407.261658 
	C383.020111,405.455719 383.077332,404.196075 383.141663,402.779846 
	C385.997009,402.520416 388.603119,402.283630 391.584290,402.012787 
	C391.502319,400.268768 391.429199,398.713165 391.346680,396.957306 
	C388.434357,396.957306 385.980011,396.957306 383.352783,396.957306 
	C383.352783,395.201904 383.352783,393.673431 383.352783,391.730469 
	C386.899811,391.730469 390.133453,391.730469 393.651703,391.730469 
	C393.526978,389.730347 393.429474,388.166687 393.338165,386.702332 
	C387.519501,386.702332 382.112854,386.702332 376.486481,386.702332 
	C376.486481,394.965424 376.486481,402.928955 376.491577,411.760986 
M106.136429,401.545013 
	C105.002319,405.335938 103.868217,409.126862 102.649879,413.199310 
	C106.158066,413.402924 109.435135,414.412964 110.230247,409.667023 
	C110.350212,408.950867 111.794373,408.117706 112.740067,407.937561 
	C116.801994,407.163940 120.030594,407.994019 120.226212,412.973389 
	C122.560165,412.973389 124.502792,412.973389 126.894386,412.973389 
	C124.515244,405.740021 121.892509,398.930695 120.093636,391.910248 
	C118.771492,386.750366 116.224236,385.110474 111.007545,386.751465 
	C109.498451,391.329987 107.940033,396.058167 106.136429,401.545013 
M53.996658,401.328552 
	C52.740772,405.091064 51.484890,408.853607 50.118374,412.947571 
	C52.416203,412.947571 54.359863,412.947571 56.665081,412.947571 
	C57.112598,406.306671 61.713604,407.629028 66.088455,408.151550 
	C66.674835,409.748718 67.239594,411.287018 67.804909,412.826843 
	C69.960983,412.826843 71.983032,412.826843 74.434547,412.826843 
	C71.441193,403.738159 68.601669,395.116547 65.796272,386.598572 
	C63.045864,386.598572 60.741825,386.598572 58.432308,386.598572 
	C56.996231,391.359894 55.608192,395.961945 53.996658,401.328552 
M169.037613,397.196991 
	C166.740005,397.196991 164.442383,397.196991 161.882294,397.196991 
	C161.882294,395.307373 161.882294,393.907379 161.882294,392.117432 
	C165.237732,392.117432 168.508835,392.117432 171.875183,392.117432 
	C171.875183,389.992950 171.875183,388.271698 171.875183,386.507019 
	C166.109695,386.507019 160.697952,386.507019 155.325043,386.507019 
	C155.325043,395.562775 155.325043,404.283661 155.325043,412.989410 
	C161.096436,412.989410 166.536545,412.989410 172.270508,412.989410 
	C172.174362,410.992432 172.090485,409.250244 171.992126,407.206970 
	C168.380997,407.206970 165.265610,407.206970 161.896454,407.206970 
	C161.896454,405.466888 161.896454,404.055359 161.896454,402.318420 
	C164.608582,402.318420 167.069183,402.318420 169.995422,402.318420 
	C169.914841,400.551758 169.849228,399.113434 169.037613,397.196991 
M246.618530,338.652954 
	C242.358353,338.652954 238.098160,338.652954 233.524536,338.652954 
	C233.680786,341.350708 233.792206,343.274658 233.911407,345.332947 
	C236.804398,345.524353 239.350235,345.692780 242.227417,345.883148 
	C242.227417,354.064636 242.227417,361.823914 242.227417,369.628357 
	C244.969101,369.628357 247.320007,369.628357 250.076080,369.628357 
	C250.076080,361.335663 250.076080,353.432495 250.076080,345.334015 
	C252.786804,345.334015 255.078659,345.334015 257.616028,345.334015 
	C257.616028,343.050629 257.616028,340.979706 257.616028,338.638184 
	C254.160187,338.638184 250.866440,338.638184 246.618530,338.652954 
M293.247192,393.260132 
	C296.579315,392.825958 299.911438,392.391785 303.243591,391.957611 
	C303.421570,392.433533 303.599548,392.909424 303.777527,393.385345 
	C304.310852,391.742950 304.844177,390.100555 305.409363,388.360016 
	C304.017670,387.640015 303.035736,387.011627 301.969971,386.600555 
	C295.979828,384.290161 289.070801,386.359131 287.203217,390.974152 
	C285.261749,395.771667 287.335419,398.847656 294.580414,402.272858 
	C296.362427,403.115295 297.942017,404.385895 299.614685,405.459656 
	C299.395508,406.188049 299.176361,406.916443 298.957184,407.644867 
	C295.354431,407.199951 291.751678,406.755035 287.611084,406.243683 
	C287.171661,407.345276 286.538757,408.931915 285.876221,410.592834 
	C290.553131,413.436798 295.084839,414.440002 300.052399,413.173340 
	C303.648834,412.256287 305.902130,410.135254 306.324249,406.354126 
	C306.751343,402.528748 304.895416,400.099274 301.556000,398.468719 
	C298.753967,397.100525 296.054169,395.523041 293.247192,393.260132 
M332.035126,392.828918 
	C331.411316,397.025909 333.798096,399.271576 337.206940,400.908997 
	C339.927338,402.215759 342.607788,403.605713 346.216766,405.415466 
	C344.134338,406.676697 343.154388,407.782806 342.294342,407.696350 
	C339.567871,407.422180 336.886169,406.702667 333.865997,406.090240 
	C333.238617,407.396149 332.545624,408.838623 331.415192,411.191589 
	C334.763672,412.103729 337.657562,413.211700 340.648621,413.637604 
	C346.190887,414.426727 350.440674,411.756256 351.556396,407.234741 
	C352.609192,402.968414 350.542908,399.985748 345.015106,397.585480 
	C342.730835,396.593658 340.526611,395.417389 338.286011,394.325012 
	C338.398743,393.750549 338.511505,393.176056 338.624268,392.601593 
	C340.254730,392.363007 341.926361,391.785736 343.504547,391.977417 
	C345.213013,392.184937 346.834351,393.109772 348.770081,393.823700 
	C349.447510,391.915436 350.030426,390.273376 350.579590,388.726379 
	C342.429047,383.721924 336.079376,384.985901 332.035126,392.828918 
M287.396759,345.664978 
	C287.396759,353.633698 287.396759,361.602386 287.396759,369.735413 
	C294.222198,369.735413 300.597290,369.735413 306.906952,369.735413 
	C306.906952,367.465240 306.906952,365.667023 306.906952,363.399414 
	C302.928528,363.399414 299.172150,363.399414 294.954346,363.399414 
	C294.954346,355.026794 294.954346,347.112640 294.954346,339.039459 
	C292.226471,339.039459 289.974640,339.039459 287.397461,339.039459 
	C287.397461,341.114014 287.397461,342.918884 287.396759,345.664978 
M323.528625,399.369446 
	C325.750183,395.209930 327.971771,391.050446 330.181152,386.913757 
	C320.424591,383.846649 322.127533,393.200073 318.308868,396.638123 
	C317.159668,394.177734 315.800354,391.696960 314.822205,389.074005 
	C313.304413,385.003998 310.323822,386.616394 308.113159,386.586304 
	C311.154114,395.343811 314.135468,403.929596 317.276215,412.974487 
	C317.754242,412.974487 319.511200,412.974487 320.879761,412.974487 
	C321.682129,408.461914 322.426819,404.273743 323.528625,399.369446 
M263.977661,413.094910 
	C265.755646,413.094910 267.533661,413.094910 269.726013,413.094910 
	C269.726013,405.936127 269.726013,399.184601 269.726013,391.850830 
	C272.350098,391.850830 274.561432,391.850830 276.978607,391.850830 
	C276.836517,389.643524 276.733856,388.048645 276.631897,386.464478 
	C269.649658,386.464478 263.047363,386.464478 256.305756,386.464478 
	C256.305756,388.498260 256.305756,390.185211 256.305756,391.850586 
	C258.738770,392.019165 260.824615,392.163696 263.284454,392.334137 
	C263.284454,399.336121 263.284454,405.977875 263.977661,413.094910 
M361.075958,413.195343 
	C362.670013,413.195343 364.264069,413.195343 366.212616,413.195343 
	C366.212616,405.814209 366.212616,399.045227 366.212616,392.205444 
	C368.671173,392.058075 370.775543,391.931915 373.161102,391.788940 
	C373.044098,389.947510 372.944000,388.371887 372.835602,386.665649 
	C365.906738,386.665649 359.314636,386.665649 352.412201,386.665649 
	C352.497894,388.508484 352.571655,390.094604 352.650818,391.796997 
	C355.210388,391.979218 357.439880,392.137939 360.319397,392.342957 
	C360.319397,399.478821 360.319397,406.249939 361.075958,413.195343 
z"/>
<path fill="#1F365E" opacity="1.000000" stroke="none" 
	d="
M342.083374,179.000000 
	C342.083954,221.454086 342.083954,263.408173 342.083954,305.821350 
	C352.860016,305.821350 363.141754,305.811737 373.423370,305.832001 
	C374.921265,305.834961 376.685303,305.511261 377.852386,306.173584 
	C379.484894,307.100006 381.958038,309.046173 381.759216,310.132965 
	C381.432129,311.920563 379.475433,313.709747 377.768433,314.834564 
	C376.716064,315.528015 374.852142,315.002930 373.352600,315.002960 
	C266.695770,315.004974 160.038956,315.007782 53.382137,314.992249 
	C49.662498,314.991699 45.166786,316.027161 44.654381,310.275238 
	C44.345032,306.802765 47.476059,305.441132 54.011311,305.574463 
	C60.796394,305.712891 67.586494,305.605316 74.396400,305.605316 
	C74.396400,293.319794 74.396400,281.236603 74.396400,268.939575 
	C63.848866,267.143341 54.775074,263.195435 47.252357,255.747391 
	C33.651020,242.281036 31.256838,220.710449 42.205879,204.989105 
	C44.604771,201.544617 45.604767,198.419037 45.239201,194.051636 
	C43.639790,174.943436 58.960392,158.472534 78.021996,158.204529 
	C96.236198,157.948441 111.575294,173.515808 110.774696,192.381943 
	C110.542931,197.843704 111.649796,201.914719 115.654121,205.865479 
	C115.654121,168.082413 115.654121,130.578033 115.654121,93.011261 
	C115.468575,92.897087 115.201363,92.603462 114.903534,92.568146 
	C105.961342,91.507919 105.960396,91.511955 105.316467,82.309601 
	C105.269943,81.644722 105.177940,80.976204 105.207420,80.313843 
	C105.866943,65.496002 106.306656,67.030121 118.188919,66.997704 
	C123.655220,66.982788 129.121582,66.995163 133.768494,66.995163 
	C133.158524,61.822388 132.198715,56.844265 132.062927,51.843769 
	C131.814270,42.686649 131.989105,33.515526 132.103806,24.351696 
	C132.236481,13.752261 138.258606,7.247838 148.763290,7.221756 
	C198.591537,7.098031 248.420807,7.060931 298.248535,7.274698 
	C311.685028,7.332343 317.564575,13.594390 317.883789,27.150143 
	C318.107300,36.642281 318.098663,46.155640 317.699341,55.638702 
	C317.546051,59.278961 316.021027,62.861465 314.987213,67.006844 
	C321.166382,67.006844 328.014618,67.060219 334.861786,66.996368 
	C352.208923,66.834610 349.735138,67.067505 350.003540,82.226929 
	C350.012390,82.726715 350.013733,83.227066 350.001373,83.726730 
	C349.825531,90.834854 349.104156,91.682152 342.082764,92.665596 
	C342.082764,121.242195 342.082764,149.871094 342.083374,179.000000 
M124.154373,166.500000 
	C124.154373,212.917404 124.154373,259.334808 124.154373,305.669739 
	C150.173126,305.669739 175.424622,305.669739 200.818634,305.669739 
	C200.818634,284.898438 200.818634,264.450897 200.818634,245.016891 
	C198.526184,242.831848 196.136276,241.524765 195.332153,239.566513 
	C194.032455,236.401352 197.079071,234.019196 202.062820,234.010406 
	C219.561218,233.979584 237.059677,233.999100 254.558121,234.009186 
	C255.723557,234.009857 257.115570,233.702942 258.004242,234.221344 
	C259.552887,235.124771 261.859985,236.527740 261.897827,237.780289 
	C261.948761,239.465240 260.337219,241.368652 259.058838,242.849960 
	C258.475830,243.525513 256.982147,243.415161 256.041992,243.629272 
	C256.041992,264.532715 256.041992,285.095764 256.041992,305.720459 
	C281.864960,305.720459 307.284271,305.720459 333.043152,305.720459 
	C333.043152,234.536362 333.043152,163.628922 333.043152,92.437790 
	C263.439819,92.437790 194.038879,92.437790 124.154488,92.437790 
	C124.154488,116.929825 124.154488,141.214920 124.154373,166.500000 
M231.500000,61.852104 
	C254.494781,61.867912 277.489624,61.917393 300.484314,61.876308 
	C306.374298,61.865784 308.770081,59.592537 308.848511,53.771877 
	C308.985474,43.610664 308.988708,33.444416 308.828735,23.283728 
	C308.741760,17.757860 306.965881,16.031429 301.555298,16.026802 
	C250.232513,15.982916 198.909668,16.013288 147.586868,15.974528 
	C143.060760,15.971109 140.582764,18.100397 140.530106,22.509687 
	C140.408829,32.665257 140.152130,42.842171 140.658539,52.975037 
	C141.065994,61.127895 142.283356,61.867210 150.517670,61.876251 
	C177.178406,61.905518 203.839218,61.865391 231.500000,61.852104 
M74.821640,237.084335 
	C74.879082,235.756805 74.978271,234.429565 74.986839,233.101715 
	C75.027710,226.770950 74.802872,220.423035 75.246208,214.121597 
	C75.351028,212.631790 77.651398,210.205490 78.979660,210.179962 
	C80.501900,210.150711 82.414680,212.071915 83.491432,213.611740 
	C84.224281,214.659775 83.898079,216.508194 83.898926,217.998795 
	C83.905685,229.829025 83.866226,241.659286 83.871933,253.489532 
	C83.872765,255.221909 84.037254,256.954224 84.128548,258.735870 
	C106.740150,255.387863 119.380104,228.083374 106.911034,209.361252 
	C103.001961,203.491837 101.329567,198.018082 102.029526,191.380386 
	C102.116264,190.557907 102.053108,189.713409 101.998489,188.883133 
	C100.916504,172.434570 83.393303,161.959641 68.409134,168.798416 
	C57.936611,173.578064 52.396912,185.277222 54.075478,198.085388 
	C54.371368,200.343124 53.545925,203.357193 52.126007,205.132156 
	C42.457924,217.217606 41.202301,231.445679 49.337196,244.586273 
	C55.094017,253.885483 63.544575,258.887146 74.554558,259.846069 
	C75.532448,254.816788 75.358650,250.813904 71.348434,247.621567 
	C68.778961,245.576126 66.588593,243.041901 64.305115,240.653336 
	C62.100227,238.346954 59.216846,235.536560 61.853653,232.510284 
	C64.736443,229.201706 67.891655,231.672241 70.481155,234.012238 
	C71.709747,235.122421 72.928490,236.243484 74.821640,237.084335 
M237.454269,305.995117 
	C240.521133,305.995117 243.587982,305.995117 246.654205,305.995117 
	C246.654205,284.727722 246.654205,264.330536 246.654205,243.479645 
	C234.295334,243.479645 222.268967,243.479645 210.321289,243.479645 
	C210.321289,264.409607 210.321289,284.973480 210.321289,305.995117 
	C219.242279,305.995117 227.855438,305.995117 237.454269,305.995117 
M340.932831,76.764061 
	C339.089844,76.176582 337.247620,75.078011 335.403778,75.075340 
	C263.580139,74.971260 191.756302,74.965302 119.932503,74.961983 
	C118.351257,74.961914 116.770004,75.141808 115.295776,75.231255 
	C115.295776,78.465759 115.295776,81.052292 115.295776,83.651878 
	C190.678970,83.651878 265.696991,83.651878 340.981628,83.651878 
	C340.981628,81.326057 340.981628,79.501976 340.932831,76.764061 
M98.984650,262.617676 
	C93.960312,264.739716 88.935974,266.861786 83.686394,269.078979 
	C83.686394,280.855103 83.686394,293.137177 83.686394,305.597412 
	C94.629639,305.597412 105.058098,305.597412 115.587509,305.597412 
	C115.587509,285.744324 115.587509,266.104462 115.587509,247.740646 
	C110.516670,252.335327 105.061554,257.278198 98.984650,262.617676 
z"/>
<path fill="#30456B" opacity="1.000000" stroke="none" 
	d="
M409.270508,397.664856 
	C409.744171,398.776978 410.084442,399.512238 410.839813,401.144318 
	C412.892029,395.876709 414.668549,391.316772 416.503845,386.606018 
	C419.008331,386.606018 421.600128,386.606018 424.401672,386.606018 
	C424.401672,395.427948 424.401672,404.033600 424.401672,413.050171 
	C422.655182,413.225494 420.890503,413.402679 418.533142,413.639343 
	C418.533142,409.381989 418.533142,405.343140 418.533142,401.304291 
	C418.179169,401.238770 417.825195,401.173248 417.471222,401.107697 
	C416.270691,404.262665 415.227020,407.492035 413.785126,410.532532 
	C413.276520,411.605042 411.786957,412.864044 410.758606,412.852448 
	C409.759064,412.841217 408.344818,411.500977 407.866608,410.412964 
	C406.350647,406.963837 405.186859,403.359924 403.159729,399.888733 
	C403.159729,404.196045 403.159729,408.503326 403.159729,413.015869 
	C401.108490,413.015869 399.507996,413.015869 397.646851,413.015869 
	C397.646851,404.277313 397.646851,395.688690 397.646851,387.083344 
	C404.484100,385.464905 404.625916,385.527252 407.035950,391.681946 
	C407.763550,393.540009 408.438232,395.418701 409.270508,397.664856 
z"/>
<path fill="#263C64" opacity="1.000000" stroke="none" 
	d="
M172.084045,352.424957 
	C173.639008,344.213318 178.480026,339.673584 186.159897,338.508514 
	C192.698318,337.516602 197.813202,340.362061 201.443970,345.784637 
	C205.138947,351.303070 204.873993,358.620636 200.924576,364.011230 
	C196.882416,369.528412 189.648682,371.879730 183.160522,369.785339 
	C176.753036,367.717010 172.323257,362.001312 171.989548,355.338165 
	C171.948090,354.510162 172.020081,353.676514 172.084045,352.424957 
M185.311615,345.342773 
	C184.178955,346.304291 182.827530,347.100433 181.953278,348.257233 
	C178.914536,352.278046 179.890274,359.449829 183.714844,362.285004 
	C186.943878,364.678772 192.092575,364.447906 193.736465,360.797272 
	C195.217255,357.508789 195.601395,353.130035 194.835220,349.585358 
	C193.981644,345.636414 190.232910,344.203003 185.311615,345.342773 
z"/>
<path fill="#243B63" opacity="1.000000" stroke="none" 
	d="
M36.394920,394.320618 
	C37.527561,391.520935 38.486214,389.066711 39.467216,386.555267 
	C41.739258,386.555267 43.884464,386.555267 46.521881,386.555267 
	C46.521881,395.352966 46.521881,404.062317 46.521881,412.981140 
	C44.758686,412.981140 43.143806,412.981140 41.199863,412.981140 
	C41.199863,408.691315 41.199863,404.410950 41.199863,400.130585 
	C40.894901,400.050659 40.589943,399.970734 40.284981,399.890808 
	C38.723820,404.030975 37.162663,408.171173 35.396759,412.854340 
	C26.962332,413.279053 30.525673,403.867279 25.440052,400.760315 
	C25.440052,404.952972 25.440052,408.853027 25.440052,412.956543 
	C23.285887,412.956543 21.877501,412.956543 20.225327,412.956543 
	C20.225327,404.251587 20.225327,395.657593 20.225327,387.070221 
	C27.656189,385.555634 27.641590,385.560822 30.111938,392.530975 
	C31.105627,395.334656 32.179039,398.110107 33.526138,401.731781 
	C34.615368,398.875854 35.418152,396.770966 36.394920,394.320618 
z"/>
<path fill="#233A62" opacity="1.000000" stroke="none" 
	d="
M179.939575,386.290894 
	C183.424072,385.588501 184.962219,387.166779 185.909988,389.853790 
	C187.223801,393.578522 188.664413,397.258514 190.362839,401.790466 
	C191.808212,398.053589 192.943039,395.172974 194.038208,392.277344 
	C196.494827,385.782043 196.486786,385.778992 203.713196,386.988892 
	C203.713196,395.549011 203.713196,404.121735 203.713196,412.959290 
	C201.822098,413.053925 200.210480,413.134552 198.092102,413.240570 
	C198.092102,408.688324 198.092102,404.333984 198.092102,399.979645 
	C197.790268,399.926025 197.488449,399.872406 197.186615,399.818787 
	C196.222565,402.202148 195.421600,404.669739 194.247040,406.944427 
	C193.148010,409.072815 191.883942,412.467102 190.286346,412.718048 
	C186.435242,413.322845 187.377274,408.907776 186.074326,406.763275 
	C184.971786,404.948639 184.348495,402.842804 183.513092,400.865814 
	C183.075821,400.981598 182.638535,401.097382 182.201263,401.213196 
	C182.201263,405.065308 182.201263,408.917450 182.201263,412.960449 
	C180.274521,412.960449 178.867905,412.960449 176.994125,412.960449 
	C176.994125,404.728485 176.927902,396.619690 177.104004,388.516144 
	C177.120331,387.765259 178.676407,387.047821 179.939575,386.290894 
z"/>
<path fill="#1F355F" opacity="1.000000" stroke="none" 
	d="
M165.887329,338.907959 
	C166.360992,349.187897 166.360992,359.407257 166.360992,369.816711 
	C164.599289,369.816711 162.643921,369.816711 160.119797,369.816711 
	C160.119797,365.700562 160.119797,361.477356 160.119797,357.054565 
	C155.944916,357.054565 152.327393,357.054565 148.141235,357.054565 
	C148.141235,361.173981 148.141235,365.395416 148.141235,369.802582 
	C145.627716,369.802582 143.676285,369.802582 141.359436,369.802582 
	C141.359436,359.706024 141.359436,349.499176 141.359436,339.058685 
	C143.458450,339.058685 145.517303,339.058685 147.938263,339.058685 
	C147.938263,342.687561 147.938263,346.124298 147.938263,349.858398 
	C152.013351,349.858398 155.739029,349.858398 159.839111,349.858398 
	C159.839111,346.411224 159.839111,342.972076 159.839111,338.847321 
	C161.933792,338.847321 163.673737,338.847321 165.887329,338.907959 
z"/>
<path fill="#33476D" opacity="1.000000" stroke="none" 
	d="
M87.027954,401.920959 
	C86.042221,400.381836 85.252129,399.174194 83.728577,396.845428 
	C83.728577,402.990814 83.728577,407.809082 83.728577,412.933655 
	C81.586540,412.933655 79.828461,412.933655 77.720108,412.933655 
	C77.720108,404.306641 77.720108,395.589508 77.720108,386.717651 
	C88.336143,383.810730 87.513062,395.085571 93.267540,399.248749 
	C93.267540,394.799438 93.267540,390.769531 93.267540,386.569977 
	C95.584747,386.569977 97.351875,386.569977 99.372925,386.569977 
	C99.372925,395.277435 99.372925,403.882690 99.372925,412.694733 
	C95.853737,414.006226 93.184982,413.526245 91.472115,409.585510 
	C90.353455,407.011810 88.659737,404.688080 87.027954,401.920959 
z"/>
<path fill="#2B4168" opacity="1.000000" stroke="none" 
	d="
M277.836914,370.031342 
	C272.536407,370.031372 267.716064,370.031372 262.510529,370.031372 
	C262.510529,359.646362 262.510529,349.437195 262.510529,339.000092 
	C268.713715,339.000092 274.995819,339.000092 281.577454,339.000092 
	C281.577454,340.802948 281.577454,342.555786 281.577454,344.869171 
	C277.674103,344.869171 273.599335,344.869171 269.217896,344.869171 
	C269.380524,347.221954 269.503357,348.998932 269.657349,351.226685 
	C273.011841,351.226685 276.096130,351.226685 279.478210,351.226685 
	C279.478210,353.434509 279.478210,355.174896 279.478210,357.434296 
	C276.421478,357.434296 273.351868,357.434296 269.886353,357.434296 
	C269.777039,359.494049 269.693848,361.062042 269.577637,363.251343 
	C273.781799,363.251343 277.674377,363.251343 281.791748,363.251343 
	C281.791748,365.627289 281.791748,367.408295 281.791748,369.663116 
	C280.764221,369.772003 279.540680,369.901672 277.836914,370.031342 
z"/>
<path fill="#273D65" opacity="1.000000" stroke="none" 
	d="
M225.837921,353.082214 
	C229.562851,355.659485 231.550476,358.726440 230.281937,363.024719 
	C228.961563,367.498596 225.822021,369.695953 221.187210,370.282562 
	C216.179916,370.916290 211.677155,370.185364 207.308304,366.713867 
	C208.257996,364.914703 209.147934,363.228790 210.000839,361.613007 
	C214.586395,362.094574 218.986816,366.923126 223.710938,360.691528 
	C220.733124,359.229492 218.186951,357.851379 215.540253,356.705536 
	C209.362061,354.030762 206.785004,350.573517 207.821503,346.100922 
	C209.018875,340.934174 214.494797,337.369720 220.629196,338.268768 
	C223.637970,338.709717 226.514313,340.054382 229.717834,341.075195 
	C228.681793,343.419312 227.952789,345.068695 227.244156,346.672028 
	C224.339401,346.045319 221.678391,345.256531 218.966537,344.995026 
	C217.927780,344.894867 216.772858,345.999237 215.670868,346.554688 
	C216.371445,347.528717 216.864197,348.877716 217.813171,349.403687 
	C220.271271,350.766174 222.930344,351.766083 225.837921,353.082214 
z"/>
<path fill="#2A3F67" opacity="1.000000" stroke="none" 
	d="
M139.769547,397.943115 
	C143.487381,397.822968 146.788605,397.822968 150.583908,397.822968 
	C150.583908,399.781860 150.613312,401.393524 150.578018,403.003815 
	C150.494095,406.832458 151.732925,411.081146 146.305084,412.781036 
	C140.380264,414.636597 133.494553,413.361603 130.188293,409.332550 
	C126.066414,404.309662 125.956070,395.729797 129.948273,390.670593 
	C133.672150,385.951447 141.428741,384.268799 147.238358,387.267822 
	C148.480270,387.908966 149.049591,389.853027 149.928757,391.196869 
	C148.183334,391.808624 145.947296,393.421448 144.781677,392.850189 
	C140.798569,390.898010 136.912369,391.205811 135.233490,394.812805 
	C133.917206,397.640869 134.431427,401.821716 135.427658,404.994934 
	C135.866180,406.391785 139.473434,407.171722 141.735489,407.438171 
	C142.682480,407.549774 143.872330,405.599884 145.960144,403.641296 
	C142.695419,403.201447 141.117371,402.988861 138.985153,402.701599 
	C139.106155,401.175476 139.229553,399.619354 139.769547,397.943115 
z"/>
<path fill="#263C64" opacity="1.000000" stroke="none" 
	d="
M230.139542,396.052734 
	C230.139557,392.747314 230.139557,389.931366 230.139557,387.184265 
	C235.684601,385.490997 235.684601,385.490997 245.794067,400.789612 
	C245.794067,395.881195 245.794067,391.531128 245.794067,386.811340 
	C248.031647,386.811340 249.889999,386.811340 251.925598,386.811340 
	C251.925598,395.560699 251.925598,404.150940 251.925598,413.251892 
	C241.349808,413.466858 242.216019,402.737305 236.405212,398.350830 
	C236.405212,403.020203 236.405212,407.787292 236.405212,412.863586 
	C234.167557,412.863586 232.440674,412.863586 230.139526,412.863586 
	C230.139526,407.430023 230.139526,401.986145 230.139542,396.052734 
z"/>
<path fill="#32476D" opacity="1.000000" stroke="none" 
	d="
M224.424530,399.046997 
	C223.535934,400.464264 222.830856,402.039886 221.754837,402.357086 
	C220.081924,402.850189 218.156708,402.487396 216.001282,402.487396 
	C216.001282,403.982239 216.001282,405.369904 216.001282,407.256439 
	C219.508759,407.256439 222.926559,407.256439 226.611511,407.256439 
	C226.611511,409.463074 226.611511,411.189606 226.611511,413.082275 
	C220.997147,413.082275 215.542252,413.082275 209.731140,413.082275 
	C209.731140,404.292969 209.731140,395.600311 209.731140,386.511719 
	C214.965607,386.511719 220.222321,386.511719 225.862671,386.511719 
	C225.862671,388.186493 225.862671,389.899994 225.862671,392.022522 
	C222.617599,392.022522 219.366455,392.022522 215.881836,392.022522 
	C215.881836,393.815918 215.881836,395.208771 215.881836,396.250153 
	C218.915100,397.097473 221.678436,397.869385 224.424530,399.046997 
z"/>
<path fill="#2D4269" opacity="1.000000" stroke="none" 
	d="
M376.489014,411.326721 
	C376.486481,402.928955 376.486481,394.965424 376.486481,386.702332 
	C382.112854,386.702332 387.519501,386.702332 393.338165,386.702332 
	C393.429474,388.166687 393.526978,389.730347 393.651703,391.730469 
	C390.133453,391.730469 386.899811,391.730469 383.352783,391.730469 
	C383.352783,393.673431 383.352783,395.201904 383.352783,396.957306 
	C385.980011,396.957306 388.434357,396.957306 391.346680,396.957306 
	C391.429199,398.713165 391.502319,400.268768 391.584290,402.012787 
	C388.603119,402.283630 385.997009,402.520416 383.141663,402.779846 
	C383.077332,404.196075 383.020111,405.455719 382.938080,407.261658 
	C386.583405,407.261658 389.985535,407.261658 393.579407,407.261658 
	C393.579407,409.397308 393.579407,410.998413 393.579407,413.143829 
	C388.141479,413.143829 382.882690,413.172791 377.625916,413.084229 
	C377.240479,413.077728 376.869354,412.221924 376.489014,411.326721 
z"/>
<path fill="#283E66" opacity="1.000000" stroke="none" 
	d="
M106.259018,401.165680 
	C107.940033,396.058167 109.498451,391.329987 111.007545,386.751465 
	C116.224236,385.110474 118.771492,386.750366 120.093636,391.910248 
	C121.892509,398.930695 124.515244,405.740021 126.894386,412.973389 
	C124.502792,412.973389 122.560165,412.973389 120.226212,412.973389 
	C120.030594,407.994019 116.801994,407.163940 112.740067,407.937561 
	C111.794373,408.117706 110.350212,408.950867 110.230247,409.667023 
	C109.435135,414.412964 106.158066,413.402924 102.649879,413.199310 
	C103.868217,409.126862 105.002319,405.335938 106.259018,401.165680 
z"/>
<path fill="#283E66" opacity="1.000000" stroke="none" 
	d="
M54.108406,400.946289 
	C55.608192,395.961945 56.996231,391.359894 58.432308,386.598572 
	C60.741825,386.598572 63.045864,386.598572 65.796272,386.598572 
	C68.601669,395.116547 71.441193,403.738159 74.434547,412.826843 
	C71.983032,412.826843 69.960983,412.826843 67.804909,412.826843 
	C67.239594,411.287018 66.674835,409.748718 66.088455,408.151550 
	C61.713604,407.629028 57.112598,406.306671 56.665081,412.947571 
	C54.359863,412.947571 52.416203,412.947571 50.118374,412.947571 
	C51.484890,408.853607 52.740772,405.091064 54.108406,400.946289 
z"/>
<path fill="#2C4269" opacity="1.000000" stroke="none" 
	d="
M169.410614,397.436035 
	C169.849228,399.113434 169.914841,400.551758 169.995422,402.318420 
	C167.069183,402.318420 164.608582,402.318420 161.896454,402.318420 
	C161.896454,404.055359 161.896454,405.466888 161.896454,407.206970 
	C165.265610,407.206970 168.380997,407.206970 171.992126,407.206970 
	C172.090485,409.250244 172.174362,410.992432 172.270508,412.989410 
	C166.536545,412.989410 161.096436,412.989410 155.325043,412.989410 
	C155.325043,404.283661 155.325043,395.562775 155.325043,386.507019 
	C160.697952,386.507019 166.109695,386.507019 171.875183,386.507019 
	C171.875183,388.271698 171.875183,389.992950 171.875183,392.117432 
	C168.508835,392.117432 165.237732,392.117432 161.882294,392.117432 
	C161.882294,393.907379 161.882294,395.307373 161.882294,397.196991 
	C164.442383,397.196991 166.740005,397.196991 169.410614,397.436035 
z"/>
<path fill="#283D65" opacity="1.000000" stroke="none" 
	d="
M247.095612,338.645569 
	C250.866440,338.638184 254.160187,338.638184 257.616028,338.638184 
	C257.616028,340.979706 257.616028,343.050629 257.616028,345.334015 
	C255.078659,345.334015 252.786804,345.334015 250.076080,345.334015 
	C250.076080,353.432495 250.076080,361.335663 250.076080,369.628357 
	C247.320007,369.628357 244.969101,369.628357 242.227417,369.628357 
	C242.227417,361.823914 242.227417,354.064636 242.227417,345.883148 
	C239.350235,345.692780 236.804398,345.524353 233.911407,345.332947 
	C233.792206,343.274658 233.680786,341.350708 233.524536,338.652954 
	C238.098160,338.652954 242.358353,338.652954 247.095612,338.645569 
z"/>
<path fill="#293E66" opacity="1.000000" stroke="none" 
	d="
M293.278137,393.649170 
	C296.054169,395.523041 298.753967,397.100525 301.556000,398.468719 
	C304.895416,400.099274 306.751343,402.528748 306.324249,406.354126 
	C305.902130,410.135254 303.648834,412.256287 300.052399,413.173340 
	C295.084839,414.440002 290.553131,413.436798 285.876221,410.592834 
	C286.538757,408.931915 287.171661,407.345276 287.611084,406.243683 
	C291.751678,406.755035 295.354431,407.199951 298.957184,407.644867 
	C299.176361,406.916443 299.395508,406.188049 299.614685,405.459656 
	C297.942017,404.385895 296.362427,403.115295 294.580414,402.272858 
	C287.335419,398.847656 285.261749,395.771667 287.203217,390.974152 
	C289.070801,386.359131 295.979828,384.290161 301.969971,386.600555 
	C303.035736,387.011627 304.017670,387.640015 305.409363,388.360016 
	C304.844177,390.100555 304.310852,391.742950 303.777527,393.385345 
	C303.599548,392.909424 303.421570,392.433533 303.243591,391.957611 
	C299.911438,392.391785 296.579315,392.825958 293.278137,393.649170 
z"/>
<path fill="#283E66" opacity="1.000000" stroke="none" 
	d="
M332.108215,392.444092 
	C336.079376,384.985901 342.429047,383.721924 350.579590,388.726379 
	C350.030426,390.273376 349.447510,391.915436 348.770081,393.823700 
	C346.834351,393.109772 345.213013,392.184937 343.504547,391.977417 
	C341.926361,391.785736 340.254730,392.363007 338.624268,392.601593 
	C338.511505,393.176056 338.398743,393.750549 338.286011,394.325012 
	C340.526611,395.417389 342.730835,396.593658 345.015106,397.585480 
	C350.542908,399.985748 352.609192,402.968414 351.556396,407.234741 
	C350.440674,411.756256 346.190887,414.426727 340.648621,413.637604 
	C337.657562,413.211700 334.763672,412.103729 331.415192,411.191589 
	C332.545624,408.838623 333.238617,407.396149 333.865997,406.090240 
	C336.886169,406.702667 339.567871,407.422180 342.294342,407.696350 
	C343.154388,407.782806 344.134338,406.676697 346.216766,405.415466 
	C342.607788,403.605713 339.927338,402.215759 337.206940,400.908997 
	C333.798096,399.271576 331.411316,397.025909 332.108215,392.444092 
z"/>
<path fill="#2E436A" opacity="1.000000" stroke="none" 
	d="
M287.397095,345.194366 
	C287.397461,342.918884 287.397461,341.114014 287.397461,339.039459 
	C289.974640,339.039459 292.226471,339.039459 294.954346,339.039459 
	C294.954346,347.112640 294.954346,355.026794 294.954346,363.399414 
	C299.172150,363.399414 302.928528,363.399414 306.906952,363.399414 
	C306.906952,365.667023 306.906952,367.465240 306.906952,369.735413 
	C300.597290,369.735413 294.222198,369.735413 287.396759,369.735413 
	C287.396759,361.602386 287.396759,353.633698 287.397095,345.194366 
z"/>
<path fill="#2F446B" opacity="1.000000" stroke="none" 
	d="
M323.350067,399.727509 
	C322.426819,404.273743 321.682129,408.461914 320.879761,412.974487 
	C319.511200,412.974487 317.754242,412.974487 317.276215,412.974487 
	C314.135468,403.929596 311.154114,395.343811 308.113159,386.586304 
	C310.323822,386.616394 313.304413,385.003998 314.822205,389.074005 
	C315.800354,391.696960 317.159668,394.177734 318.308868,396.638123 
	C322.127533,393.200073 320.424591,383.846649 330.181152,386.913757 
	C327.971771,391.050446 325.750183,395.209930 323.350067,399.727509 
z"/>
<path fill="#31466C" opacity="1.000000" stroke="none" 
	d="
M263.631042,412.857269 
	C263.284454,405.977875 263.284454,399.336121 263.284454,392.334137 
	C260.824615,392.163696 258.738770,392.019165 256.305756,391.850586 
	C256.305756,390.185211 256.305756,388.498260 256.305756,386.464478 
	C263.047363,386.464478 269.649658,386.464478 276.631897,386.464478 
	C276.733856,388.048645 276.836517,389.643524 276.978607,391.850830 
	C274.561432,391.850830 272.350098,391.850830 269.726013,391.850830 
	C269.726013,399.184601 269.726013,405.936127 269.726013,413.094910 
	C267.533661,413.094910 265.755646,413.094910 263.631042,412.857269 
z"/>
<path fill="#283D65" opacity="1.000000" stroke="none" 
	d="
M360.697693,413.108185 
	C360.319397,406.249939 360.319397,399.478821 360.319397,392.342957 
	C357.439880,392.137939 355.210388,391.979218 352.650818,391.796997 
	C352.571655,390.094604 352.497894,388.508484 352.412201,386.665649 
	C359.314636,386.665649 365.906738,386.665649 372.835602,386.665649 
	C372.944000,388.371887 373.044098,389.947510 373.161102,391.788940 
	C370.775543,391.931915 368.671173,392.058075 366.212616,392.205444 
	C366.212616,399.045227 366.212616,405.814209 366.212616,413.195343 
	C364.264069,413.195343 362.670013,413.195343 360.697693,413.108185 
z"/>
<path fill="#F49D46" opacity="1.000000" stroke="none" 
	d="
M124.154434,166.000000 
	C124.154488,141.214920 124.154488,116.929825 124.154488,92.437790 
	C194.038879,92.437790 263.439819,92.437790 333.043152,92.437790 
	C333.043152,163.628922 333.043152,234.536362 333.043152,305.720459 
	C307.284271,305.720459 281.864960,305.720459 256.041992,305.720459 
	C256.041992,285.095764 256.041992,264.532715 256.041992,243.629272 
	C256.982147,243.415161 258.475830,243.525513 259.058838,242.849960 
	C260.337219,241.368652 261.948761,239.465240 261.897827,237.780289 
	C261.859985,236.527740 259.552887,235.124771 258.004242,234.221344 
	C257.115570,233.702942 255.723557,234.009857 254.558121,234.009186 
	C237.059677,233.999100 219.561218,233.979584 202.062820,234.010406 
	C197.079071,234.019196 194.032455,236.401352 195.332153,239.566513 
	C196.136276,241.524765 198.526184,242.831848 200.818634,245.016891 
	C200.818634,264.450897 200.818634,284.898438 200.818634,305.669739 
	C175.424622,305.669739 150.173126,305.669739 124.154373,305.669739 
	C124.154373,259.334808 124.154373,212.917404 124.154434,166.000000 
M185.654434,123.509148 
	C185.654099,119.846191 185.584229,116.181595 185.670837,112.520699 
	C185.781540,107.840187 183.797699,105.337875 178.904785,105.356316 
	C167.252853,105.400238 155.600571,105.340714 143.948563,105.372688 
	C140.831009,105.381241 138.803406,106.906075 138.759460,110.163826 
	C138.588837,122.808632 138.433167,135.455078 138.476273,148.100204 
	C138.485931,150.930588 139.806030,153.332977 143.274536,153.342041 
	C155.583572,153.374176 167.892761,153.425797 180.201645,153.387817 
	C183.679199,153.377090 185.163498,151.444916 185.185562,147.952759 
	C185.234985,140.136459 185.485428,132.321426 185.654434,123.509148 
M155.509079,169.990677 
	C152.350632,170.019867 149.178299,170.249741 146.036942,170.032181 
	C141.070084,169.688217 138.578049,171.526123 138.591248,176.775528 
	C138.620041,188.241028 138.654358,199.716507 138.202255,211.168808 
	C137.991409,216.509857 140.494049,218.652374 145.130341,218.710693 
	C156.762131,218.856995 168.398468,218.773987 180.031158,218.633209 
	C183.247391,218.594299 185.224121,217.039261 185.204193,213.358582 
	C185.138565,201.233154 185.341263,189.105835 185.222229,176.981384 
	C185.167862,171.442383 183.651505,170.106705 177.949356,170.018448 
	C170.803268,169.907837 163.654022,170.000031 155.509079,169.990677 
M279.029022,218.836716 
	C290.022827,218.771378 301.016693,218.655487 312.010437,218.665344 
	C316.475677,218.669342 318.835663,216.923843 318.813568,212.169037 
	C318.759399,200.510178 318.949280,188.850174 318.895203,177.191330 
	C318.869843,171.723114 317.185669,170.175232 311.602417,170.147705 
	C300.774292,170.094345 289.945618,170.102951 279.117371,170.141525 
	C273.802002,170.160446 272.317657,171.536392 272.250671,176.956833 
	C272.108643,188.449478 272.297943,199.948120 272.019409,211.436249 
	C271.907715,216.041794 273.750427,218.289459 279.029022,218.836716 
M271.989014,136.486115 
	C272.055328,140.308609 272.014618,144.136902 272.221008,147.951828 
	C272.393829,151.145691 273.829590,153.238174 277.465179,153.261780 
	C289.421631,153.339417 301.377502,153.586044 313.333618,153.587799 
	C316.500977,153.588257 318.775818,151.893707 318.803589,148.394028 
	C318.901184,136.096680 319.000031,123.798073 318.910156,111.501312 
	C318.884186,107.946831 317.226593,105.655205 313.074371,105.657082 
	C301.776672,105.662186 290.476318,105.546188 279.182373,105.263023 
	C274.281128,105.140137 272.150574,107.327606 272.137726,112.055458 
	C272.116455,119.867310 272.042297,127.679016 271.989014,136.486115 
M216.601303,170.040344 
	C215.768402,170.051285 214.935501,170.061874 214.102600,170.073196 
	C206.404251,170.177811 205.954422,170.525146 205.903320,178.384903 
	C205.829742,189.704514 206.030807,201.026459 205.896637,212.344833 
	C205.849731,216.302628 207.241333,218.260895 211.316589,218.287628 
	C223.132843,218.365143 234.948273,218.594910 246.764465,218.635620 
	C250.787186,218.649475 252.142593,216.120667 252.128021,212.373932 
	C252.082016,200.545990 252.071686,188.717026 252.187454,176.889801 
	C252.232895,172.246780 250.103943,170.171768 245.558441,170.168488 
	C236.231018,170.161743 226.903641,170.081589 216.601303,170.040344 
M138.745926,246.428406 
	C138.606979,257.563568 138.360336,268.698853 138.372070,279.833862 
	C138.378433,285.887665 139.438461,287.265533 145.639175,287.399139 
	C157.089111,287.645844 168.552658,287.331299 180.009155,287.159393 
	C183.312698,287.109802 184.683289,284.967346 184.704025,281.901215 
	C184.786087,269.763763 184.867828,257.625916 184.841782,245.488419 
	C184.833755,241.748001 183.028107,239.795227 178.962006,239.787216 
	C167.499252,239.764633 156.036942,239.503693 144.574524,239.332977 
	C140.348236,239.270020 138.505188,241.422440 138.745926,246.428406 
M306.367340,239.214966 
	C296.714691,239.381790 287.062256,239.560898 277.409332,239.708939 
	C273.897980,239.762802 272.138306,241.706726 272.105865,245.003601 
	C271.986237,257.165741 271.898438,269.330597 272.053680,281.491211 
	C272.091095,284.418793 273.352173,287.016357 277.142273,287.023590 
	C288.792816,287.045837 300.444672,287.278503 312.093018,287.152893 
	C317.665161,287.092773 318.925629,285.436981 318.932709,279.714508 
	C318.945679,269.218597 318.927521,258.722626 318.956024,248.226776 
	C318.975983,240.871231 317.768555,239.594589 310.320831,239.303436 
	C309.321930,239.264389 308.321869,239.256317 306.367340,239.214966 
M252.161957,137.484802 
	C252.161514,128.991272 252.073959,120.496460 252.198288,112.004745 
	C252.258331,107.903427 250.651596,105.683044 246.419800,105.653778 
	C234.771866,105.573235 223.122772,105.361290 211.476761,105.473221 
	C207.768250,105.508850 206.001846,107.815109 206.045639,111.752609 
	C206.175262,123.407814 206.206329,135.067520 206.015488,146.721222 
	C205.937851,151.462601 208.140274,153.510025 212.539978,153.542007 
	C223.863571,153.624298 235.188187,153.651566 246.511841,153.593857 
	C250.076569,153.575699 252.016617,151.626602 252.056976,147.968719 
	C252.091888,144.804871 252.127029,141.641022 252.161957,137.484802 
z"/>
<path fill="#F29C46" opacity="1.000000" stroke="none" 
	d="
M231.000000,61.852051 
	C203.839218,61.865391 177.178406,61.905518 150.517670,61.876251 
	C142.283356,61.867210 141.065994,61.127895 140.658539,52.975037 
	C140.152130,42.842171 140.408829,32.665257 140.530106,22.509687 
	C140.582764,18.100397 143.060760,15.971109 147.586868,15.974528 
	C198.909668,16.013288 250.232513,15.982916 301.555298,16.026802 
	C306.965881,16.031429 308.741760,17.757860 308.828735,23.283728 
	C308.988708,33.444416 308.985474,43.610664 308.848511,53.771877 
	C308.770081,59.592537 306.374298,61.865784 300.484314,61.876308 
	C277.489624,61.917393 254.494781,61.867912 231.000000,61.852051 
M159.908981,42.259808 
	C162.633987,42.259808 165.358994,42.259808 168.499573,42.259808 
	C168.499573,46.104549 168.499573,49.372543 168.499573,52.632088 
	C171.156418,52.632088 173.375366,52.632088 175.713837,52.632088 
	C175.713837,43.022636 175.713837,33.794331 175.713837,24.456821 
	C173.190323,24.456821 170.972351,24.456821 168.306778,24.456821 
	C168.306778,28.027239 168.306778,31.282244 168.306778,34.830517 
	C165.132614,34.830517 162.413025,34.830517 159.414017,34.830517 
	C159.235825,31.222431 159.068497,27.834110 158.902008,24.462910 
	C156.181625,24.462910 153.951706,24.462910 151.909134,24.462910 
	C151.909134,34.138504 151.909134,43.473885 151.909134,52.757217 
	C154.732254,52.757217 156.791397,52.757217 159.320602,52.757217 
	C159.320602,49.231644 159.320602,46.096657 159.908981,42.259808 
M180.766785,36.819759 
	C180.649384,44.702118 183.732986,50.330605 189.555206,52.565605 
	C195.566864,54.873325 201.013794,53.655464 205.621872,49.297432 
	C210.051971,45.107685 211.236160,38.084785 208.719727,32.783501 
	C206.025436,27.107525 200.349304,23.661535 194.324951,24.044407 
	C187.662628,24.467823 183.137451,28.475426 180.766785,36.819759 
M272.498138,30.868025 
	C274.270905,30.868025 276.043671,30.868025 277.805084,30.868025 
	C277.805084,28.313053 277.805084,26.416430 277.805084,24.448223 
	C271.558197,24.448223 265.671265,24.448223 259.777191,24.448223 
	C259.777191,34.007797 259.777191,43.245998 259.777191,52.697674 
	C266.083008,52.697674 271.967682,52.697674 277.802032,52.697674 
	C277.802032,50.646526 277.802032,48.915867 277.802032,46.651428 
	C274.056793,46.651428 270.660522,46.651428 266.935730,46.651428 
	C267.101257,44.524815 267.222717,42.964436 267.372467,41.040916 
	C270.569275,41.040916 273.333191,41.040916 276.304810,41.040916 
	C276.304810,38.918995 276.304810,37.200935 276.304810,35.131847 
	C274.508026,35.131847 273.035370,35.170292 271.565643,35.120914 
	C270.127686,35.072605 268.692688,34.934769 267.395142,34.845749 
	C266.050110,30.056414 269.237213,30.974518 272.498138,30.868025 
M227.599472,24.627316 
	C226.285889,24.433025 224.975449,24.098257 223.658188,24.068991 
	C218.223114,23.948235 214.107574,26.921621 213.230209,31.493946 
	C212.399323,35.824032 214.575821,38.910419 219.971054,41.075695 
	C221.051697,41.509392 222.325027,41.754444 223.136642,42.495090 
	C224.212448,43.476810 224.921677,44.860256 225.788422,46.071068 
	C224.288971,46.400513 222.801590,46.868286 221.284943,47.000870 
	C220.530106,47.066853 219.658661,46.630058 218.947708,46.229488 
	C214.878906,43.937004 213.330460,45.858044 212.409195,51.110443 
	C216.844681,51.997868 221.065598,53.467155 225.301331,53.511204 
	C229.401627,53.553841 232.385330,50.891037 233.111984,46.467766 
	C233.835678,42.062462 232.071960,39.062206 227.949982,37.382004 
	C226.718460,36.880013 225.342682,36.473518 224.383896,35.626202 
	C223.184769,34.566513 222.347717,33.097095 221.354355,31.804550 
	C222.986969,31.529802 224.697220,30.814508 226.233673,31.085316 
	C228.444412,31.474968 230.936829,32.520042 231.290192,29.402189 
	C231.446732,28.021015 229.408463,26.391094 227.599472,24.627316 
M235.633530,30.820248 
	C237.742432,31.442532 239.851318,32.064816 242.393250,32.814873 
	C242.393250,39.284782 242.393250,45.886463 242.393250,52.748100 
	C245.060318,52.748100 247.294922,52.748100 250.114471,52.748100 
	C250.114471,45.834690 250.114471,39.090458 250.114471,32.250046 
	C252.574585,31.952873 254.472641,31.723593 256.292938,31.503708 
	C256.292938,28.905048 256.292938,26.668175 256.292938,24.416231 
	C249.176697,24.416231 242.421021,24.416231 235.267990,24.416231 
	C235.267990,26.479811 235.267990,28.256388 235.633530,30.820248 
M290.594727,37.324738 
	C290.594727,33.060047 290.594727,28.795359 290.594727,24.403206 
	C287.316406,24.403206 285.071869,24.403206 282.766510,24.403206 
	C282.766510,34.041271 282.766510,43.399982 282.766510,52.790672 
	C288.291779,52.790672 293.401093,52.790672 298.602936,52.790672 
	C298.602936,50.707775 298.602936,48.863598 298.602936,46.995861 
	C295.586456,46.852985 292.977173,46.729401 290.158844,46.595913 
	C290.310944,43.535263 290.442596,40.886292 290.594727,37.324738 
z"/>
<path fill="#46A16B" opacity="1.000000" stroke="none" 
	d="
M74.486664,237.221985 
	C72.928490,236.243484 71.709747,235.122421 70.481155,234.012238 
	C67.891655,231.672241 64.736443,229.201706 61.853653,232.510284 
	C59.216846,235.536560 62.100227,238.346954 64.305115,240.653336 
	C66.588593,243.041901 68.778961,245.576126 71.348434,247.621567 
	C75.358650,250.813904 75.532448,254.816788 74.554558,259.846069 
	C63.544575,258.887146 55.094017,253.885483 49.337196,244.586273 
	C41.202301,231.445679 42.457924,217.217606 52.126007,205.132156 
	C53.545925,203.357193 54.371368,200.343124 54.075478,198.085388 
	C52.396912,185.277222 57.936611,173.578064 68.409134,168.798416 
	C83.393303,161.959641 100.916504,172.434570 101.998489,188.883133 
	C102.053108,189.713409 102.116264,190.557907 102.029526,191.380386 
	C101.329567,198.018082 103.001961,203.491837 106.911034,209.361252 
	C119.380104,228.083374 106.740150,255.387863 84.128548,258.735870 
	C84.037254,256.954224 83.872765,255.221909 83.871933,253.489532 
	C83.866226,241.659286 83.905685,229.829025 83.898926,217.998795 
	C83.898079,216.508194 84.224281,214.659775 83.491432,213.611740 
	C82.414680,212.071915 80.501900,210.150711 78.979660,210.179962 
	C77.651398,210.205490 75.351028,212.631790 75.246208,214.121597 
	C74.802872,220.423035 75.027710,226.770950 74.986839,233.101715 
	C74.978271,234.429565 74.879082,235.756805 74.486664,237.221985 
z"/>
<path fill="#F59E46" opacity="1.000000" stroke="none" 
	d="
M236.961426,305.995117 
	C227.855438,305.995117 219.242279,305.995117 210.321289,305.995117 
	C210.321289,284.973480 210.321289,264.409607 210.321289,243.479645 
	C222.268967,243.479645 234.295334,243.479645 246.654205,243.479645 
	C246.654205,264.330536 246.654205,284.727722 246.654205,305.995117 
	C243.587982,305.995117 240.521133,305.995117 236.961426,305.995117 
z"/>
<path fill="#4778C2" opacity="1.000000" stroke="none" 
	d="
M340.957214,77.220978 
	C340.981628,79.501976 340.981628,81.326057 340.981628,83.651878 
	C265.696991,83.651878 190.678970,83.651878 115.295776,83.651878 
	C115.295776,81.052292 115.295776,78.465759 115.295776,75.231255 
	C116.770004,75.141808 118.351257,74.961914 119.932503,74.961983 
	C191.756302,74.965302 263.580139,74.971260 335.403778,75.075340 
	C337.247620,75.078011 339.089844,76.176582 340.957214,77.220978 
z"/>
<path fill="#FAFBFC" opacity="1.000000" stroke="none" 
	d="
M99.295547,262.419373 
	C105.061554,257.278198 110.516670,252.335327 115.587509,247.740646 
	C115.587509,266.104462 115.587509,285.744324 115.587509,305.597412 
	C105.058098,305.597412 94.629639,305.597412 83.686394,305.597412 
	C83.686394,293.137177 83.686394,280.855103 83.686394,269.078979 
	C88.935974,266.861786 93.960312,264.739716 99.295547,262.419373 
z"/>
<path fill="#F9F9FA" opacity="1.000000" stroke="none" 
	d="
M185.687332,345.203857 
	C190.232910,344.203003 193.981644,345.636414 194.835220,349.585358 
	C195.601395,353.130035 195.217255,357.508789 193.736465,360.797272 
	C192.092575,364.447906 186.943878,364.678772 183.714844,362.285004 
	C179.890274,359.449829 178.914536,352.278046 181.953278,348.257233 
	C182.827530,347.100433 184.178955,346.304291 185.687332,345.203857 
z"/>
<path fill="#283C60" opacity="1.000000" stroke="none" 
	d="
M185.654221,124.007507 
	C185.485428,132.321426 185.234985,140.136459 185.185562,147.952759 
	C185.163498,151.444916 183.679199,153.377090 180.201645,153.387817 
	C167.892761,153.425797 155.583572,153.374176 143.274536,153.342041 
	C139.806030,153.332977 138.485931,150.930588 138.476273,148.100204 
	C138.433167,135.455078 138.588837,122.808632 138.759460,110.163826 
	C138.803406,106.906075 140.831009,105.381241 143.948563,105.372688 
	C155.600571,105.340714 167.252853,105.400238 178.904785,105.356316 
	C183.797699,105.337875 185.781540,107.840187 185.670837,112.520699 
	C185.584229,116.181595 185.654099,119.846191 185.654221,124.007507 
M147.661484,126.512619 
	C147.661484,132.452286 147.661484,138.391937 147.661484,144.473099 
	C157.519104,144.473099 166.741745,144.473099 176.016998,144.473099 
	C176.016998,134.538651 176.016998,124.962219 176.016998,115.240715 
	C166.476685,115.240715 157.260635,115.240715 147.661194,115.240715 
	C147.661194,118.904213 147.661194,122.210548 147.661484,126.512619 
z"/>
<path fill="#243B61" opacity="1.000000" stroke="none" 
	d="
M156.007614,169.997681 
	C163.654022,170.000031 170.803268,169.907837 177.949356,170.018448 
	C183.651505,170.106705 185.167862,171.442383 185.222229,176.981384 
	C185.341263,189.105835 185.138565,201.233154 185.204193,213.358582 
	C185.224121,217.039261 183.247391,218.594299 180.031158,218.633209 
	C168.398468,218.773987 156.762131,218.856995 145.130341,218.710693 
	C140.494049,218.652374 137.991409,216.509857 138.202255,211.168808 
	C138.654358,199.716507 138.620041,188.241028 138.591248,176.775528 
	C138.578049,171.526123 141.070084,169.688217 146.036942,170.032181 
	C149.178299,170.249741 152.350632,170.019867 156.007614,169.997681 
M147.718338,181.599152 
	C147.718338,190.537537 147.718338,199.475922 147.718338,208.848755 
	C157.136093,208.848755 166.474960,208.848755 175.792877,208.848755 
	C175.792877,198.944183 175.792877,189.532166 175.792877,179.661880 
	C169.679123,179.661880 163.884521,179.550369 158.096954,179.704269 
	C154.700134,179.794586 151.314545,180.307297 147.718338,181.599152 
z"/>
<path fill="#253B60" opacity="1.000000" stroke="none" 
	d="
M278.589233,218.800201 
	C273.750427,218.289459 271.907715,216.041794 272.019409,211.436249 
	C272.297943,199.948120 272.108643,188.449478 272.250671,176.956833 
	C272.317657,171.536392 273.802002,170.160446 279.117371,170.141525 
	C289.945618,170.102951 300.774292,170.094345 311.602417,170.147705 
	C317.185669,170.175232 318.869843,171.723114 318.895203,177.191330 
	C318.949280,188.850174 318.759399,200.510178 318.813568,212.169037 
	C318.835663,216.923843 316.475677,218.669342 312.010437,218.665344 
	C301.016693,218.655487 290.022827,218.771378 278.589233,218.800201 
M303.443878,179.660599 
	C296.063385,179.660599 288.682861,179.660599 281.422607,179.660599 
	C281.422607,189.891068 281.422607,199.276001 281.422607,208.891754 
	C290.851624,208.891754 299.883209,208.891754 309.040894,208.891754 
	C309.040894,199.060196 309.040894,189.678299 309.040894,179.988617 
	C307.324707,179.866318 305.879639,179.763336 303.443878,179.660599 
z"/>
<path fill="#25395E" opacity="1.000000" stroke="none" 
	d="
M271.989746,135.988449 
	C272.042297,127.679016 272.116455,119.867310 272.137726,112.055458 
	C272.150574,107.327606 274.281128,105.140137 279.182373,105.263023 
	C290.476318,105.546188 301.776672,105.662186 313.074371,105.657082 
	C317.226593,105.655205 318.884186,107.946831 318.910156,111.501312 
	C319.000031,123.798073 318.901184,136.096680 318.803589,148.394028 
	C318.775818,151.893707 316.500977,153.588257 313.333618,153.587799 
	C301.377502,153.586044 289.421631,153.339417 277.465179,153.261780 
	C273.829590,153.238174 272.393829,151.145691 272.221008,147.951828 
	C272.014618,144.136902 272.055328,140.308609 271.989746,135.988449 
M284.715881,114.865814 
	C283.532776,115.773720 281.349609,116.652367 281.322052,117.594078 
	C281.061005,126.515915 281.166595,135.448471 281.166595,144.549561 
	C290.729065,144.549561 299.781982,144.549561 308.948975,144.549561 
	C308.948975,134.576660 308.948975,124.901474 308.948975,114.864807 
	C300.920227,114.864807 293.295898,114.864807 284.715881,114.865814 
z"/>
<path fill="#21375F" opacity="1.000000" stroke="none" 
	d="
M217.088776,170.035995 
	C226.903641,170.081589 236.231018,170.161743 245.558441,170.168488 
	C250.103943,170.171768 252.232895,172.246780 252.187454,176.889801 
	C252.071686,188.717026 252.082016,200.545990 252.128021,212.373932 
	C252.142593,216.120667 250.787186,218.649475 246.764465,218.635620 
	C234.948273,218.594910 223.132843,218.365143 211.316589,218.287628 
	C207.241333,218.260895 205.849731,216.302628 205.896637,212.344833 
	C206.030807,201.026459 205.829742,189.704514 205.903320,178.384903 
	C205.954422,170.525146 206.404251,170.177811 214.102600,170.073196 
	C214.935501,170.061874 215.768402,170.051285 217.088776,170.035995 
M235.439224,209.231476 
	C237.857391,209.231476 240.275558,209.231476 242.702820,209.231476 
	C242.702820,198.971832 242.702820,189.545700 242.702820,180.047516 
	C233.387115,180.047516 224.360962,180.047516 215.299789,180.047516 
	C215.299789,189.871796 215.299789,199.290497 215.299789,209.248154 
	C221.870636,209.248154 228.163742,209.248154 235.439224,209.231476 
z"/>
<path fill="#24395F" opacity="1.000000" stroke="none" 
	d="
M138.757965,245.988434 
	C138.505188,241.422440 140.348236,239.270020 144.574524,239.332977 
	C156.036942,239.503693 167.499252,239.764633 178.962006,239.787216 
	C183.028107,239.795227 184.833755,241.748001 184.841782,245.488419 
	C184.867828,257.625916 184.786087,269.763763 184.704025,281.901215 
	C184.683289,284.967346 183.312698,287.109802 180.009155,287.159393 
	C168.552658,287.331299 157.089111,287.645844 145.639175,287.399139 
	C139.438461,287.265533 138.378433,285.887665 138.372070,279.833862 
	C138.360336,268.698853 138.606979,257.563568 138.757965,245.988434 
M175.837555,260.520386 
	C175.837555,256.760529 175.837555,253.000702 175.837555,249.264938 
	C166.099106,249.264938 157.051422,249.264938 147.980316,249.264938 
	C147.980316,259.009064 147.980316,268.395081 147.980316,278.260742 
	C157.336594,278.260742 166.369720,278.260742 175.837418,278.260742 
	C175.837418,272.747955 175.837418,267.130005 175.837555,260.520386 
z"/>
<path fill="#23395F" opacity="1.000000" stroke="none" 
	d="
M306.844849,239.224442 
	C308.321869,239.256317 309.321930,239.264389 310.320831,239.303436 
	C317.768555,239.594589 318.975983,240.871231 318.956024,248.226776 
	C318.927521,258.722626 318.945679,269.218597 318.932709,279.714508 
	C318.925629,285.436981 317.665161,287.092773 312.093018,287.152893 
	C300.444672,287.278503 288.792816,287.045837 277.142273,287.023590 
	C273.352173,287.016357 272.091095,284.418793 272.053680,281.491211 
	C271.898438,269.330597 271.986237,257.165741 272.105865,245.003601 
	C272.138306,241.706726 273.897980,239.762802 277.409332,239.708939 
	C287.062256,239.560898 296.714691,239.381790 306.844849,239.224442 
M295.285706,278.364471 
	C299.864532,278.364471 304.443359,278.364471 308.983978,278.364471 
	C308.983978,268.441101 308.983978,258.872711 308.983978,249.212952 
	C299.546509,249.212952 290.481415,249.212952 281.437805,249.212952 
	C281.437805,259.047028 281.437805,268.575348 281.437805,278.358276 
	C286.017792,278.358276 290.174652,278.358276 295.285706,278.364471 
z"/>
<path fill="#23375D" opacity="1.000000" stroke="none" 
	d="
M252.162018,137.980988 
	C252.127029,141.641022 252.091888,144.804871 252.056976,147.968719 
	C252.016617,151.626602 250.076569,153.575699 246.511841,153.593857 
	C235.188187,153.651566 223.863571,153.624298 212.539978,153.542007 
	C208.140274,153.510025 205.937851,151.462601 206.015488,146.721222 
	C206.206329,135.067520 206.175262,123.407814 206.045639,111.752609 
	C206.001846,107.815109 207.768250,105.508850 211.476761,105.473221 
	C223.122772,105.361290 234.771866,105.573235 246.419800,105.653778 
	C250.651596,105.683044 252.258331,107.903427 252.198288,112.004745 
	C252.073959,120.496460 252.161514,128.991272 252.162018,137.980988 
M242.996994,129.499878 
	C242.996994,124.747536 242.996994,119.995186 242.996994,115.147644 
	C233.480179,115.147644 224.596115,115.147644 215.434387,115.147644 
	C215.434387,125.076187 215.434387,134.757217 215.434387,144.447845 
	C224.724976,144.447845 233.725861,144.447845 242.584900,144.447845 
	C242.799194,143.582626 242.945831,143.262085 242.948029,142.940552 
	C242.976334,138.792679 242.984070,134.644653 242.996994,129.499878 
z"/>
<path fill="#27385C" opacity="1.000000" stroke="none" 
	d="
M159.614792,42.610737 
	C159.320602,46.096657 159.320602,49.231644 159.320602,52.757217 
	C156.791397,52.757217 154.732254,52.757217 151.909134,52.757217 
	C151.909134,43.473885 151.909134,34.138504 151.909134,24.462910 
	C153.951706,24.462910 156.181625,24.462910 158.902008,24.462910 
	C159.068497,27.834110 159.235825,31.222431 159.414017,34.830517 
	C162.413025,34.830517 165.132614,34.830517 168.306778,34.830517 
	C168.306778,31.282244 168.306778,28.027239 168.306778,24.456821 
	C170.972351,24.456821 173.190323,24.456821 175.713837,24.456821 
	C175.713837,33.794331 175.713837,43.022636 175.713837,52.632088 
	C173.375366,52.632088 171.156418,52.632088 168.499573,52.632088 
	C168.499573,49.372543 168.499573,46.104549 168.499573,42.259808 
	C165.358994,42.259808 162.633987,42.259808 159.614792,42.610737 
z"/>
<path fill="#25385C" opacity="1.000000" stroke="none" 
	d="
M180.817123,36.391216 
	C183.137451,28.475426 187.662628,24.467823 194.324951,24.044407 
	C200.349304,23.661535 206.025436,27.107525 208.719727,32.783501 
	C211.236160,38.084785 210.051971,45.107685 205.621872,49.297432 
	C201.013794,53.655464 195.566864,54.873325 189.555206,52.565605 
	C183.732986,50.330605 180.649384,44.702118 180.817123,36.391216 
M196.323349,30.673389 
	C189.416443,31.357685 186.144577,38.278091 190.026291,43.992489 
	C192.845932,48.143379 198.539413,47.933804 201.121353,43.584103 
	C203.918823,38.871281 202.237579,33.467155 196.323349,30.673389 
z"/>
<path fill="#27385C" opacity="1.000000" stroke="none" 
	d="
M272.033844,30.868008 
	C269.237213,30.974518 266.050110,30.056414 267.395142,34.845749 
	C268.692688,34.934769 270.127686,35.072605 271.565643,35.120914 
	C273.035370,35.170292 274.508026,35.131847 276.304810,35.131847 
	C276.304810,37.200935 276.304810,38.918995 276.304810,41.040916 
	C273.333191,41.040916 270.569275,41.040916 267.372467,41.040916 
	C267.222717,42.964436 267.101257,44.524815 266.935730,46.651428 
	C270.660522,46.651428 274.056793,46.651428 277.802032,46.651428 
	C277.802032,48.915867 277.802032,50.646526 277.802032,52.697674 
	C271.967682,52.697674 266.083008,52.697674 259.777191,52.697674 
	C259.777191,43.245998 259.777191,34.007797 259.777191,24.448223 
	C265.671265,24.448223 271.558197,24.448223 277.805084,24.448223 
	C277.805084,26.416430 277.805084,28.313053 277.805084,30.868025 
	C276.043671,30.868025 274.270905,30.868025 272.033844,30.868008 
z"/>
<path fill="#27385C" opacity="1.000000" stroke="none" 
	d="
M227.982986,24.750702 
	C229.408463,26.391094 231.446732,28.021015 231.290192,29.402189 
	C230.936829,32.520042 228.444412,31.474968 226.233673,31.085316 
	C224.697220,30.814508 222.986969,31.529802 221.354355,31.804550 
	C222.347717,33.097095 223.184769,34.566513 224.383896,35.626202 
	C225.342682,36.473518 226.718460,36.880013 227.949982,37.382004 
	C232.071960,39.062206 233.835678,42.062462 233.111984,46.467766 
	C232.385330,50.891037 229.401627,53.553841 225.301331,53.511204 
	C221.065598,53.467155 216.844681,51.997868 212.409195,51.110443 
	C213.330460,45.858044 214.878906,43.937004 218.947708,46.229488 
	C219.658661,46.630058 220.530106,47.066853 221.284943,47.000870 
	C222.801590,46.868286 224.288971,46.400513 225.788422,46.071072 
	C224.921677,44.860256 224.212448,43.476810 223.136642,42.495090 
	C222.325027,41.754444 221.051697,41.509392 219.971054,41.075695 
	C214.575821,38.910419 212.399323,35.824032 213.230209,31.493946 
	C214.107574,26.921621 218.223114,23.948235 223.658188,24.068991 
	C224.975449,24.098257 226.285889,24.433025 227.982986,24.750702 
z"/>
<path fill="#29395C" opacity="1.000000" stroke="none" 
	d="
M235.450760,30.426605 
	C235.267990,28.256388 235.267990,26.479811 235.267990,24.416231 
	C242.421021,24.416231 249.176697,24.416231 256.292938,24.416231 
	C256.292938,26.668175 256.292938,28.905048 256.292938,31.503708 
	C254.472641,31.723593 252.574585,31.952873 250.114471,32.250046 
	C250.114471,39.090458 250.114471,45.834690 250.114471,52.748100 
	C247.294922,52.748100 245.060318,52.748100 242.393250,52.748100 
	C242.393250,45.886463 242.393250,39.284782 242.393250,32.814873 
	C239.851318,32.064816 237.742432,31.442532 235.450760,30.426605 
z"/>
<path fill="#28395C" opacity="1.000000" stroke="none" 
	d="
M290.584473,37.781029 
	C290.442596,40.886292 290.310944,43.535263 290.158844,46.595913 
	C292.977173,46.729401 295.586456,46.852985 298.602936,46.995861 
	C298.602936,48.863598 298.602936,50.707775 298.602936,52.790672 
	C293.401093,52.790672 288.291779,52.790672 282.766510,52.790672 
	C282.766510,43.399982 282.766510,34.041271 282.766510,24.403206 
	C285.071869,24.403206 287.316406,24.403206 290.594727,24.403206 
	C290.594727,28.795359 290.594727,33.060047 290.584473,37.781029 
z"/>
<path fill="#7DD6E8" opacity="1.000000" stroke="none" 
	d="
M147.661346,126.014755 
	C147.661194,122.210548 147.661194,118.904213 147.661194,115.240715 
	C157.260635,115.240715 166.476685,115.240715 176.016998,115.240715 
	C176.016998,124.962219 176.016998,134.538651 176.016998,144.473099 
	C166.741745,144.473099 157.519104,144.473099 147.661484,144.473099 
	C147.661484,138.391937 147.661484,132.452286 147.661346,126.014755 
z"/>
<path fill="#7ED7E9" opacity="1.000000" stroke="none" 
	d="
M147.821121,181.114563 
	C151.314545,180.307297 154.700134,179.794586 158.096954,179.704269 
	C163.884521,179.550369 169.679123,179.661880 175.792877,179.661880 
	C175.792877,189.532166 175.792877,198.944183 175.792877,208.848755 
	C166.474960,208.848755 157.136093,208.848755 147.718338,208.848755 
	C147.718338,199.475922 147.718338,190.537537 147.821121,181.114563 
z"/>
<path fill="#7ED6E8" opacity="1.000000" stroke="none" 
	d="
M303.939209,179.660461 
	C305.879639,179.763336 307.324707,179.866318 309.040894,179.988617 
	C309.040894,189.678299 309.040894,199.060196 309.040894,208.891754 
	C299.883209,208.891754 290.851624,208.891754 281.422607,208.891754 
	C281.422607,199.276001 281.422607,189.891068 281.422607,179.660599 
	C288.682861,179.660599 296.063385,179.660599 303.939209,179.660461 
z"/>
<path fill="#7CD4E7" opacity="1.000000" stroke="none" 
	d="
M285.193726,114.865311 
	C293.295898,114.864807 300.920227,114.864807 308.948975,114.864807 
	C308.948975,124.901474 308.948975,134.576660 308.948975,144.549561 
	C299.781982,144.549561 290.729065,144.549561 281.166595,144.549561 
	C281.166595,135.448471 281.061005,126.515915 281.322052,117.594078 
	C281.349609,116.652367 283.532776,115.773720 285.193726,114.865311 
z"/>
<path fill="#7ED7E9" opacity="1.000000" stroke="none" 
	d="
M234.948029,209.239807 
	C228.163742,209.248154 221.870636,209.248154 215.299789,209.248154 
	C215.299789,199.290497 215.299789,189.871796 215.299789,180.047516 
	C224.360962,180.047516 233.387115,180.047516 242.702820,180.047516 
	C242.702820,189.545700 242.702820,198.971832 242.702820,209.231476 
	C240.275558,209.231476 237.857391,209.231476 234.948029,209.239807 
z"/>
<path fill="#7DD5E7" opacity="1.000000" stroke="none" 
	d="
M175.837494,261.016205 
	C175.837418,267.130005 175.837418,272.747955 175.837418,278.260742 
	C166.369720,278.260742 157.336594,278.260742 147.980316,278.260742 
	C147.980316,268.395081 147.980316,259.009064 147.980316,249.264938 
	C157.051422,249.264938 166.099106,249.264938 175.837555,249.264938 
	C175.837555,253.000702 175.837555,256.760529 175.837494,261.016205 
z"/>
<path fill="#7DD6E8" opacity="1.000000" stroke="none" 
	d="
M294.808624,278.361389 
	C290.174652,278.358276 286.017792,278.358276 281.437805,278.358276 
	C281.437805,268.575348 281.437805,259.047028 281.437805,249.212952 
	C290.481415,249.212952 299.546509,249.212952 308.983978,249.212952 
	C308.983978,258.872711 308.983978,268.441101 308.983978,278.364471 
	C304.443359,278.364471 299.864532,278.364471 294.808624,278.361389 
z"/>
<path fill="#7DD5E7" opacity="1.000000" stroke="none" 
	d="
M242.996994,129.998276 
	C242.984070,134.644653 242.976334,138.792679 242.948029,142.940552 
	C242.945831,143.262085 242.799194,143.582626 242.584900,144.447845 
	C233.725861,144.447845 224.724976,144.447845 215.434387,144.447845 
	C215.434387,134.757217 215.434387,125.076187 215.434387,115.147644 
	C224.596115,115.147644 233.480179,115.147644 242.996994,115.147644 
	C242.996994,119.995186 242.996994,124.747536 242.996994,129.998276 
z"/>
<path fill="#F19B47" opacity="1.000000" stroke="none" 
	d="
M196.736038,30.744104 
	C202.237579,33.467155 203.918823,38.871281 201.121353,43.584103 
	C198.539413,47.933804 192.845932,48.143379 190.026291,43.992489 
	C186.144577,38.278091 189.416443,31.357685 196.736038,30.744104 
z"/>
</svg>